<svg width="230" height="408" viewBox="0 0 230 408" fill="none" xmlns="http://www.w3.org/2000/svg">
<path d="M51.8896 0.410004V22.39L52.6096 21.98V0L51.8896 0.410004Z" fill="white"/>
<path d="M25.9404 15.14V37.17L26.6604 36.76V14.73L25.9404 15.14Z" fill="white"/>
<path d="M0 29.8599V51.9399L0.719971 51.5299V29.46L0 29.8599Z" fill="white"/>
<path d="M212.74 167.02L106.26 228.9L105.75 407.45L212.23 345.57L212.74 167.02Z" fill="#EB3D34"/>
<path d="M212.739 167.02L170.919 72.49L64.4395 134.38L106.259 228.9L212.739 167.02Z" fill="#E43B32"/>
<path d="M106.26 228.9L64.4399 134.38L22.2198 180.38L21.71 358.93L105.75 407.45L106.26 228.9Z" fill="#BD3028"/>
<path d="M229.01 181.35L174.15 57.3499L63.6104 121.59L118.47 245.59L229.01 181.35Z" fill="#6B4E12"/>
<path d="M104.63 237.6L118.47 245.59L63.6105 121.59L8.23047 181.94L22.0505 189.92L63.5405 144.72L104.63 237.6Z" fill="#503900"/>
<path d="M88.58 243.2L78.2299 237.22L78.1699 255.53L88.5299 261.51L88.58 243.2Z" fill="#5F9D93"/>
<g style="mix-blend-mode:multiply">
<path d="M78.2299 237.22L78.1699 255.5L81.0699 253.89L81.1099 238.89L78.2299 237.22Z" fill="#5F9D93"/>
</g>
<g style="mix-blend-mode:multiply" opacity="0.5">
<path d="M88.5399 258.2L81.0699 253.89L78.1699 255.53L88.5299 261.51L88.5399 258.2Z" fill="#5F9D93"/>
</g>
<path d="M88.58 243.2L78.1699 237.2V255.56L88.5299 261.56L88.58 243.2ZM87.0499 258.93L79.6599 254.67V245.57L87.0499 249.94V258.93ZM87.0499 248.23L79.6599 243.86V239.79L87.0499 244.05V248.23Z" fill="#A6792B"/>
<path d="M88.5406 261.25L85.6106 262.96L85.6006 267.41L88.5406 265.69V261.25Z" fill="#A6792B"/>
<path d="M88.5409 261.25L78.1609 255.24L75.2109 256.96L85.6108 262.96L88.5409 261.25Z" fill="#BE9230"/>
<path d="M87.7909 261.25L78.1609 255.68L75.9609 256.95L85.6108 262.53L87.7909 261.25Z" fill="#A6792B"/>
<path d="M85.6104 262.96L75.2104 256.96L75.1904 261.4L85.6003 267.41L85.6104 262.96Z" fill="#BE9230"/>
<g style="mix-blend-mode:multiply" opacity="0.5">
<path d="M87.7899 261.25L78.1699 255.68V256.12L87.4099 261.47L87.7899 261.25Z" fill="#BE9230"/>
</g>
<g style="mix-blend-mode:multiply" opacity="0.8">
<path d="M78.1709 256.12V255.68H78.1609L75.9609 256.95L76.3309 257.17L78.1609 256.11L78.1709 256.12Z" fill="#BE9230"/>
</g>
<path d="M67.7997 231.04L57.4397 225.06L57.3896 243.36L67.7496 249.34L67.7997 231.04Z" fill="#5F9D93"/>
<g style="mix-blend-mode:multiply">
<path d="M57.4397 225.06L57.3896 243.33L60.2897 241.72L60.3297 226.72L57.4397 225.06Z" fill="#5F9D93"/>
</g>
<g style="mix-blend-mode:multiply" opacity="0.5">
<path d="M67.7596 246.03L60.2897 241.72L57.3896 243.36L67.7496 249.34L67.7596 246.03Z" fill="#5F9D93"/>
</g>
<path d="M67.7997 231.04L57.3896 225.04V243.36L67.7496 249.36L67.7997 231.04ZM66.2697 246.77L58.8796 242.51V233.41L66.2697 237.78V246.77ZM66.2697 236.07L58.8796 231.7V227.63L66.2697 231.89V236.07Z" fill="#A6792B"/>
<path d="M67.7605 249.08L64.8306 250.8L64.8105 255.24L67.7605 253.52V249.08Z" fill="#A6792B"/>
<path d="M57.3799 243.07L54.4199 244.79L64.83 250.8L67.7599 249.08L57.3799 243.07Z" fill="#BE9230"/>
<path d="M57.3796 243.51L55.1797 244.79L64.8197 250.36L67.0096 249.08L57.3796 243.51Z" fill="#A6792B"/>
<path d="M54.4202 244.79L54.4102 249.23L64.8102 255.24L64.8302 250.8L54.4202 244.79Z" fill="#BE9230"/>
<g style="mix-blend-mode:multiply" opacity="0.5">
<path d="M57.3906 243.52V243.95L66.6306 249.3L67.0106 249.08L57.3906 243.52Z" fill="#BE9230"/>
</g>
<g style="mix-blend-mode:multiply" opacity="0.8">
<path d="M57.3896 243.95V243.52L57.3796 243.51L55.1797 244.79L55.5497 245.01L57.3696 243.94L57.3896 243.95Z" fill="#BE9230"/>
</g>
<path d="M36.6604 212.89L36.6104 231.19L46.9703 237.17L47.0204 218.87L36.6604 212.89Z" fill="#5F9D93"/>
<g style="mix-blend-mode:multiply">
<path d="M36.6604 212.89L36.6104 231.16L39.5104 229.55L39.5504 214.56L36.6604 212.89Z" fill="#5F9D93"/>
</g>
<g style="mix-blend-mode:multiply" opacity="0.5">
<path d="M39.5104 229.55L36.6104 231.19L46.9703 237.17L46.9803 233.86L39.5104 229.55Z" fill="#5F9D93"/>
</g>
<path d="M36.6504 212.89V231.2L47.0104 237.2L47.0604 218.89L36.6504 212.89ZM45.5304 234.6L38.1404 230.34V221.24L45.5304 225.61V234.6ZM45.5304 223.9L38.1404 219.53V215.46L45.5304 219.72V223.9Z" fill="#A6792B"/>
<path d="M44.0403 238.63L44.0303 243.07L46.9802 241.35V236.91L44.0403 238.63Z" fill="#A6792B"/>
<path d="M36.5896 230.9L33.6396 232.62L44.0397 238.63L46.9796 236.91L36.5896 230.9Z" fill="#BE9230"/>
<path d="M36.5896 231.34L34.3896 232.62L44.0397 238.19L46.2296 236.91L36.5896 231.34Z" fill="#A6792B"/>
<path d="M33.6399 232.62L33.6299 237.06L44.0299 243.07L44.0399 238.63L33.6399 232.62Z" fill="#BE9230"/>
<g style="mix-blend-mode:multiply" opacity="0.5">
<path d="M36.6094 231.35V231.79L45.8494 237.13L46.2294 236.91L36.6094 231.35Z" fill="#BE9230"/>
</g>
<g style="mix-blend-mode:multiply" opacity="0.8">
<path d="M36.6096 231.79V231.35L36.5896 231.34L34.3896 232.62L34.7697 232.84L36.5896 231.78L36.6096 231.79Z" fill="#BE9230"/>
</g>
<path d="M134.73 237.42L124.37 243.4L124.43 261.7L134.78 255.72L134.73 237.42Z" fill="#5F9D93"/>
<g style="mix-blend-mode:multiply">
<path d="M134.73 237.42L131.84 239.09L131.88 254.08L134.78 255.69L134.73 237.42Z" fill="#5F9D93"/>
</g>
<g style="mix-blend-mode:multiply" opacity="0.5">
<path d="M131.88 254.08L124.42 258.39L124.43 261.7L134.78 255.72L131.88 254.08Z" fill="#5F9D93"/>
</g>
<path d="M134.78 237.42L124.37 243.42L124.42 261.73L134.78 255.73V237.42ZM125.87 248.42V244.24L133.26 239.98V244.05L125.87 248.42V248.42ZM125.87 259.12V250.12L133.26 245.75V254.85L125.87 259.12Z" fill="#A6792B"/>
<path d="M124.42 261.44V265.88L127.36 267.6L127.35 263.16L124.42 261.44Z" fill="#A6792B"/>
<path d="M134.8 255.43L124.42 261.44L127.35 263.16L137.75 257.15L134.8 255.43Z" fill="#BE9230"/>
<path d="M134.8 255.87L125.17 261.44L127.35 262.72L137 257.15L134.8 255.87Z" fill="#A6792B"/>
<path d="M137.75 257.15L127.35 263.16L127.36 267.6L137.77 261.59L137.75 257.15Z" fill="#BE9230"/>
<g style="mix-blend-mode:multiply" opacity="0.5">
<path d="M134.78 255.88L125.17 261.44L125.54 261.66L134.78 256.32V255.88Z" fill="#BE9230"/>
</g>
<g style="mix-blend-mode:multiply" opacity="0.8">
<path d="M137 257.15L134.8 255.87L134.78 255.88V256.32L134.8 256.31L136.62 257.37L137 257.15Z" fill="#BE9230"/>
</g>
<path d="M155.51 225.25L145.16 231.23L145.21 249.54L155.57 243.56L155.51 225.25Z" fill="#5F9D93"/>
<g style="mix-blend-mode:multiply">
<path d="M155.51 225.25L152.62 226.92L152.67 241.91L155.57 243.52L155.51 225.25Z" fill="#5F9D93"/>
</g>
<g style="mix-blend-mode:multiply" opacity="0.5">
<path d="M152.67 241.91L145.2 246.22L145.21 249.54L155.57 243.56L152.67 241.91Z" fill="#5F9D93"/>
</g>
<path d="M155.57 225.25L145.16 231.25L145.21 249.56L155.57 243.56V225.25ZM146.66 236.25V232.07L154.05 227.81V231.88L146.66 236.25V236.25ZM146.66 246.95V237.95L154.05 233.58V242.68L146.66 246.95Z" fill="#A6792B"/>
<path d="M145.2 249.27V253.72L148.14 255.43L148.13 250.99L145.2 249.27Z" fill="#A6792B"/>
<path d="M155.58 243.27L145.2 249.27L148.13 250.99L158.54 244.98L155.58 243.27Z" fill="#BE9230"/>
<path d="M155.58 243.7L145.95 249.28L148.13 250.55L157.78 244.98L155.58 243.7Z" fill="#A6792B"/>
<path d="M158.54 244.98L148.13 250.99L148.14 255.43L158.55 249.43L158.54 244.98Z" fill="#BE9230"/>
<g style="mix-blend-mode:multiply" opacity="0.5">
<path d="M155.57 243.71L145.95 249.28L146.33 249.49L155.57 244.15V243.71Z" fill="#BE9230"/>
</g>
<g style="mix-blend-mode:multiply" opacity="0.8">
<path d="M157.78 244.98L155.58 243.7L155.57 243.71V244.15L155.58 244.14L157.41 245.2L157.78 244.98Z" fill="#BE9230"/>
</g>
<path d="M176.3 213.08L165.94 219.06L165.99 237.37L176.35 231.39L176.3 213.08Z" fill="#5F9D93"/>
<g style="mix-blend-mode:multiply">
<path d="M176.3 213.08L173.41 214.75L173.45 229.74L176.35 231.36L176.3 213.08Z" fill="#5F9D93"/>
</g>
<g style="mix-blend-mode:multiply" opacity="0.5">
<path d="M173.451 229.74L165.98 234.06L165.99 237.37L176.35 231.39L173.451 229.74Z" fill="#5F9D93"/>
</g>
<path d="M176.35 213.08L165.94 219.08L165.99 237.39L176.35 231.39V213.08ZM167.43 219.92L174.82 215.66V219.73L167.43 224.1V219.92ZM167.43 234.8V225.8L174.82 221.43V230.53L167.43 234.8Z" fill="#A6792B"/>
<path d="M165.98 237.11V241.55L168.931 243.27L168.911 238.82L165.98 237.11Z" fill="#A6792B"/>
<path d="M176.36 231.1L165.98 237.11L168.911 238.82L179.321 232.82L176.36 231.1Z" fill="#BE9230"/>
<path d="M176.36 231.54L166.73 237.11L168.921 238.39L178.561 232.81L176.36 231.54Z" fill="#A6792B"/>
<path d="M179.32 232.82L168.91 238.82L168.93 243.27L179.33 237.26L179.32 232.82Z" fill="#BE9230"/>
<g style="mix-blend-mode:multiply" opacity="0.5">
<path d="M176.35 231.54L166.73 237.11L167.11 237.33L176.35 231.98V231.54Z" fill="#BE9230"/>
</g>
<g style="mix-blend-mode:multiply" opacity="0.8">
<path d="M178.561 232.81L176.361 231.54H176.351V231.98L176.361 231.97L178.191 233.03L178.561 232.81Z" fill="#BE9230"/>
</g>
<path d="M197.7 203.02L187.34 209L187.39 227.31L197.75 221.32L197.7 203.02Z" fill="#5F9D93"/>
<g style="mix-blend-mode:multiply">
<path d="M197.701 203.02L194.811 204.69L194.85 219.68L197.75 221.29L197.701 203.02Z" fill="#5F9D93"/>
</g>
<g style="mix-blend-mode:multiply" opacity="0.5">
<path d="M194.85 219.68L187.38 223.99L187.39 227.31L197.75 221.32L194.85 219.68Z" fill="#5F9D93"/>
</g>
<path d="M197.75 203.02L187.34 209.02L187.39 227.33L197.75 221.33V203.02ZM188.84 214.02V209.86L196.23 205.6V209.67L188.84 214.04V214.02ZM188.84 224.72V215.72L196.23 211.35V220.45L188.84 224.72Z" fill="#A6792B"/>
<path d="M187.38 227.04V231.49L190.33 233.2L190.31 228.76L187.38 227.04Z" fill="#A6792B"/>
<path d="M197.77 221.04L187.38 227.04L190.31 228.76L200.72 222.75L197.77 221.04Z" fill="#BE9230"/>
<path d="M197.77 221.47L188.13 227.04L190.32 228.32L199.97 222.75L197.77 221.47Z" fill="#A6792B"/>
<path d="M200.719 222.75L190.31 228.76L190.33 233.2L200.729 227.2L200.719 222.75Z" fill="#BE9230"/>
<g style="mix-blend-mode:multiply" opacity="0.5">
<path d="M197.75 221.48L188.13 227.04L188.51 227.26L197.75 221.92V221.48Z" fill="#BE9230"/>
</g>
<g style="mix-blend-mode:multiply" opacity="0.8">
<path d="M199.97 222.75L197.77 221.47L197.75 221.48V221.92L197.77 221.91L199.59 222.97L199.97 222.75Z" fill="#BE9230"/>
</g>
<path d="M134.73 277.46L124.37 283.44L124.43 301.74L134.78 295.76L134.73 277.46Z" fill="#5F9D93"/>
<g style="mix-blend-mode:multiply">
<path d="M134.73 277.46L131.84 279.13L131.88 294.12L134.78 295.73L134.73 277.46Z" fill="#5F9D93"/>
</g>
<g style="mix-blend-mode:multiply" opacity="0.5">
<path d="M131.88 294.12L124.42 298.43L124.43 301.74L134.78 295.76L131.88 294.12Z" fill="#5F9D93"/>
</g>
<path d="M134.78 277.46L124.37 283.46L124.42 301.77L134.78 295.77V277.46ZM125.87 288.46V284.28L133.26 280.02V284.09L125.87 288.46V288.46ZM125.87 299.16V290.16L133.26 285.79V294.89L125.87 299.16Z" fill="#A6792B"/>
<path d="M124.42 301.48V305.93L127.36 307.64L127.35 303.2L124.42 301.48Z" fill="#A6792B"/>
<path d="M134.8 295.47L124.42 301.48L127.35 303.2L137.75 297.19L134.8 295.47Z" fill="#BE9230"/>
<path d="M134.8 295.91L125.17 301.48L127.35 302.76L137 297.19L134.8 295.91Z" fill="#A6792B"/>
<path d="M137.75 297.19L127.35 303.2L127.36 307.64L137.77 301.64L137.75 297.19Z" fill="#BE9230"/>
<g style="mix-blend-mode:multiply" opacity="0.5">
<path d="M134.78 295.92L125.17 301.48L125.54 301.7L134.78 296.36V295.92Z" fill="#BE9230"/>
</g>
<g style="mix-blend-mode:multiply" opacity="0.8">
<path d="M137 297.19L134.8 295.91L134.78 295.92V296.36L134.8 296.35L136.62 297.41L137 297.19Z" fill="#BE9230"/>
</g>
<path d="M155.51 265.29L145.16 271.27L145.21 289.58L155.57 283.6L155.51 265.29Z" fill="#5F9D93"/>
<g style="mix-blend-mode:multiply">
<path d="M155.51 265.29L152.62 266.96L152.67 281.95L155.57 283.56L155.51 265.29Z" fill="#5F9D93"/>
</g>
<g style="mix-blend-mode:multiply" opacity="0.5">
<path d="M152.67 281.95L145.2 286.27L145.21 289.58L155.57 283.6L152.67 281.95Z" fill="#5F9D93"/>
</g>
<path d="M155.57 265.29L145.16 271.29L145.21 289.6L155.57 283.6V265.29ZM146.66 276.29V272.11L154.05 267.85V271.92L146.66 276.29V276.29ZM146.66 286.99V277.99L154.05 273.62V282.72L146.66 286.99Z" fill="#A6792B"/>
<path d="M145.2 289.31V293.76L148.14 295.47L148.13 291.03L145.2 289.31Z" fill="#A6792B"/>
<path d="M155.58 283.31L145.2 289.31L148.13 291.03L158.54 285.02L155.58 283.31Z" fill="#BE9230"/>
<path d="M155.58 283.74L145.95 289.32L148.13 290.59L157.78 285.02L155.58 283.74Z" fill="#A6792B"/>
<path d="M158.54 285.02L148.13 291.03L148.14 295.47L158.55 289.47L158.54 285.02Z" fill="#BE9230"/>
<g style="mix-blend-mode:multiply" opacity="0.5">
<path d="M155.57 283.75L145.95 289.32L146.33 289.54L155.57 284.19V283.75Z" fill="#BE9230"/>
</g>
<g style="mix-blend-mode:multiply" opacity="0.8">
<path d="M157.78 285.02L155.58 283.74L155.57 283.75V284.19L155.58 284.18L157.41 285.24L157.78 285.02Z" fill="#BE9230"/>
</g>
<path d="M176.3 253.12L165.94 259.1L165.99 277.41L176.35 271.43L176.3 253.12Z" fill="#5F9D93"/>
<g style="mix-blend-mode:multiply">
<path d="M176.3 253.12L173.41 254.79L173.45 269.79L176.35 271.4L176.3 253.12Z" fill="#5F9D93"/>
</g>
<g style="mix-blend-mode:multiply" opacity="0.5">
<path d="M173.451 269.79L165.98 274.1L165.99 277.41L176.35 271.43L173.451 269.79Z" fill="#5F9D93"/>
</g>
<path d="M176.35 253.12L165.94 259.12L165.99 277.43L176.35 271.43V253.12ZM167.43 259.96L174.82 255.7V259.77L167.43 264.14V259.96ZM167.43 274.84V265.84L174.82 261.47V270.57L167.43 274.84Z" fill="#A6792B"/>
<path d="M165.98 277.15V281.59L168.931 283.31L168.911 278.86L165.98 277.15Z" fill="#A6792B"/>
<path d="M176.36 271.14L165.98 277.15L168.911 278.86L179.321 272.86L176.36 271.14Z" fill="#BE9230"/>
<path d="M176.36 271.58L166.73 277.15L168.921 278.43L178.561 272.86L176.36 271.58Z" fill="#A6792B"/>
<path d="M179.32 272.86L168.91 278.86L168.93 283.31L179.33 277.3L179.32 272.86Z" fill="#BE9230"/>
<g style="mix-blend-mode:multiply" opacity="0.5">
<path d="M176.35 271.58L166.73 277.15L167.11 277.37L176.35 272.02V271.58Z" fill="#BE9230"/>
</g>
<g style="mix-blend-mode:multiply" opacity="0.8">
<path d="M178.561 272.86L176.361 271.58H176.351V272.02L176.361 272.01L178.191 273.07L178.561 272.86Z" fill="#BE9230"/>
</g>
<path d="M197.7 243.06L187.34 249.04L187.39 267.35L197.75 261.37L197.7 243.06Z" fill="#5F9D93"/>
<g style="mix-blend-mode:multiply">
<path d="M197.701 243.06L194.811 244.73L194.85 259.72L197.75 261.33L197.701 243.06Z" fill="#5F9D93"/>
</g>
<g style="mix-blend-mode:multiply" opacity="0.5">
<path d="M194.85 259.72L187.38 264.03L187.39 267.35L197.75 261.37L194.85 259.72Z" fill="#5F9D93"/>
</g>
<path d="M197.75 243.06L187.34 249.06L187.39 267.37L197.75 261.37V243.06ZM188.84 254.06V249.88L196.23 245.62V249.69L188.84 254.06V254.06ZM188.84 264.76V255.76L196.23 251.39V260.49L188.84 264.76Z" fill="#A6792B"/>
<path d="M187.38 267.08V271.53L190.33 273.24L190.31 268.8L187.38 267.08Z" fill="#A6792B"/>
<path d="M197.77 261.08L187.38 267.08L190.31 268.8L200.72 262.79L197.77 261.08Z" fill="#BE9230"/>
<path d="M197.77 261.51L188.13 267.08L190.32 268.36L199.97 262.79L197.77 261.51Z" fill="#A6792B"/>
<path d="M200.719 262.79L190.31 268.8L190.33 273.24L200.729 267.24L200.719 262.79Z" fill="#BE9230"/>
<g style="mix-blend-mode:multiply" opacity="0.5">
<path d="M197.75 261.52L188.13 267.08L188.51 267.31L197.75 261.96V261.52Z" fill="#BE9230"/>
</g>
<g style="mix-blend-mode:multiply" opacity="0.8">
<path d="M199.97 262.79L197.77 261.51L197.75 261.52V261.96L197.77 261.95L199.59 263.01L199.97 262.79Z" fill="#BE9230"/>
</g>
<path d="M134.73 317.5L124.37 323.48L124.43 341.79L134.78 335.81L134.73 317.5Z" fill="#5F9D93"/>
<g style="mix-blend-mode:multiply">
<path d="M134.73 317.5L131.84 319.17L131.88 334.16L134.78 335.77L134.73 317.5Z" fill="#5F9D93"/>
</g>
<g style="mix-blend-mode:multiply" opacity="0.5">
<path d="M131.88 334.16L124.42 338.47L124.43 341.79L134.78 335.81L131.88 334.16Z" fill="#5F9D93"/>
</g>
<path d="M134.78 317.5L124.37 323.5L124.42 341.81L134.78 335.81V317.5ZM125.87 328.5V324.32L133.26 320.06V324.13L125.87 328.5V328.5ZM125.87 339.2V330.2L133.26 325.83V334.93L125.87 339.2Z" fill="#A6792B"/>
<path d="M124.42 341.52V345.97L127.36 347.68L127.35 343.24L124.42 341.52Z" fill="#A6792B"/>
<path d="M134.8 335.52L124.42 341.52L127.35 343.24L137.75 337.23L134.8 335.52Z" fill="#BE9230"/>
<path d="M134.8 335.95L125.17 341.52L127.35 342.8L137 337.23L134.8 335.95Z" fill="#A6792B"/>
<path d="M137.75 337.23L127.35 343.24L127.36 347.68L137.77 341.68L137.75 337.23Z" fill="#BE9230"/>
<g style="mix-blend-mode:multiply" opacity="0.5">
<path d="M134.78 335.96L125.17 341.52L125.54 341.74L134.78 336.4V335.96Z" fill="#BE9230"/>
</g>
<g style="mix-blend-mode:multiply" opacity="0.8">
<path d="M137 337.23L134.8 335.95L134.78 335.96V336.4L134.8 336.39L136.62 337.45L137 337.23Z" fill="#BE9230"/>
</g>
<path d="M155.51 305.33L145.16 311.31L145.21 329.62L155.57 323.64L155.51 305.33Z" fill="#5F9D93"/>
<g style="mix-blend-mode:multiply">
<path d="M155.51 305.33L152.62 307L152.67 321.99L155.57 323.61L155.51 305.33Z" fill="#5F9D93"/>
</g>
<g style="mix-blend-mode:multiply" opacity="0.5">
<path d="M152.67 321.99L145.2 326.31L145.21 329.62L155.57 323.64L152.67 321.99Z" fill="#5F9D93"/>
</g>
<path d="M155.57 305.33L145.16 311.33L145.21 329.64L155.57 323.64V305.33ZM146.66 316.33V312.15L154.05 307.89V311.96L146.66 316.33V316.33ZM146.66 327.03V318.03L154.05 313.66V322.76L146.66 327.03Z" fill="#A6792B"/>
<path d="M145.2 329.35V333.8L148.14 335.52L148.13 331.07L145.2 329.35Z" fill="#A6792B"/>
<path d="M155.58 323.35L145.2 329.35L148.13 331.07L158.54 325.06L155.58 323.35Z" fill="#BE9230"/>
<path d="M155.58 323.78L145.95 329.36L148.13 330.64L157.78 325.06L155.58 323.78Z" fill="#A6792B"/>
<path d="M158.54 325.06L148.13 331.07L148.14 335.52L158.55 329.51L158.54 325.06Z" fill="#BE9230"/>
<g style="mix-blend-mode:multiply" opacity="0.5">
<path d="M155.57 323.79L145.95 329.36L146.33 329.58L155.57 324.23V323.79Z" fill="#BE9230"/>
</g>
<g style="mix-blend-mode:multiply" opacity="0.8">
<path d="M157.78 325.06L155.58 323.78L155.57 323.79V324.23L155.58 324.22L157.41 325.28L157.78 325.06Z" fill="#BE9230"/>
</g>
<path d="M176.3 293.17L165.94 299.15L165.99 317.45L176.35 311.47L176.3 293.17Z" fill="#5F9D93"/>
<g style="mix-blend-mode:multiply">
<path d="M176.3 293.17L173.41 294.83L173.45 309.83L176.35 311.44L176.3 293.17Z" fill="#5F9D93"/>
</g>
<g style="mix-blend-mode:multiply" opacity="0.5">
<path d="M173.451 309.83L165.98 314.14L165.99 317.45L176.35 311.47L173.451 309.83Z" fill="#5F9D93"/>
</g>
<path d="M176.35 293.17L165.94 299.17L165.99 317.48L176.35 311.48V293.17ZM167.43 300.01L174.82 295.75V299.82L167.43 304.19V300.01ZM167.43 314.89V305.89L174.82 301.52V310.62L167.43 314.89Z" fill="#A6792B"/>
<path d="M165.98 317.19V321.63L168.931 323.35L168.911 318.9L165.98 317.19Z" fill="#A6792B"/>
<path d="M176.36 311.18L165.98 317.19L168.911 318.9L179.321 312.9L176.36 311.18Z" fill="#BE9230"/>
<path d="M176.36 311.62L166.73 317.19L168.921 318.47L178.561 312.9L176.36 311.62Z" fill="#A6792B"/>
<path d="M179.32 312.9L168.91 318.9L168.93 323.35L179.33 317.34L179.32 312.9Z" fill="#BE9230"/>
<g style="mix-blend-mode:multiply" opacity="0.5">
<path d="M176.35 311.63L166.73 317.19L167.11 317.41L176.35 312.06V311.63Z" fill="#BE9230"/>
</g>
<g style="mix-blend-mode:multiply" opacity="0.8">
<path d="M178.561 312.9L176.361 311.62L176.351 311.63V312.06L176.361 312.05L178.191 313.11L178.561 312.9Z" fill="#BE9230"/>
</g>
<path d="M197.7 283.1L187.34 289.08L187.39 307.39L197.75 301.41L197.7 283.1Z" fill="#5F9D93"/>
<g style="mix-blend-mode:multiply">
<path d="M197.701 283.1L194.811 284.77L194.85 299.76L197.75 301.38L197.701 283.1Z" fill="#5F9D93"/>
</g>
<g style="mix-blend-mode:multiply" opacity="0.5">
<path d="M194.85 299.76L187.38 304.07L187.39 307.39L197.75 301.41L194.85 299.76Z" fill="#5F9D93"/>
</g>
<path d="M197.75 283.1L187.34 289.1L187.39 307.41L197.75 301.41V283.1ZM188.84 294.1V289.92L196.23 285.66V289.73L188.84 294.1V294.1ZM188.84 304.8V295.8L196.23 291.43V300.53L188.84 304.8Z" fill="#A6792B"/>
<path d="M187.38 307.12V311.57L190.33 313.28L190.31 308.84L187.38 307.12Z" fill="#A6792B"/>
<path d="M197.77 301.12L187.38 307.12L190.31 308.84L200.72 302.83L197.77 301.12Z" fill="#BE9230"/>
<path d="M197.77 301.55L188.13 307.13L190.32 308.4L199.97 302.83L197.77 301.55Z" fill="#A6792B"/>
<path d="M200.719 302.83L190.31 308.84L190.33 313.28L200.729 307.28L200.719 302.83Z" fill="#BE9230"/>
<g style="mix-blend-mode:multiply" opacity="0.5">
<path d="M197.75 301.56L188.13 307.13L188.51 307.35L197.75 302V301.56Z" fill="#BE9230"/>
</g>
<g style="mix-blend-mode:multiply" opacity="0.8">
<path d="M199.97 302.83L197.77 301.55L197.75 301.56V302L197.77 301.99L199.59 303.05L199.97 302.83Z" fill="#BE9230"/>
</g>
<path d="M88.58 276.72L78.2299 270.74L78.1699 289.05L88.5299 295.03L88.58 276.72Z" fill="#5F9D93"/>
<g style="mix-blend-mode:multiply">
<path d="M78.2299 270.74L78.1699 289.02L81.0699 287.41L81.1099 272.41L78.2299 270.74Z" fill="#5F9D93"/>
</g>
<g style="mix-blend-mode:multiply" opacity="0.5">
<path d="M88.5399 291.72L81.0699 287.41L78.1699 289.05L88.5299 295.03L88.5399 291.72Z" fill="#5F9D93"/>
</g>
<path d="M88.58 276.72L78.1699 270.72V289.03L88.5299 295.03L88.58 276.72ZM87.0499 292.45L79.6599 288.19V279.09L87.0499 283.46V292.45ZM87.0499 281.75L79.6599 277.38V273.31L87.0499 277.57V281.75Z" fill="#A6792B"/>
<path d="M88.5406 294.77L85.6106 296.48L85.6006 300.93L88.5406 299.21V294.77Z" fill="#A6792B"/>
<path d="M88.5409 294.77L78.1609 288.76L75.2109 290.48L85.6108 296.48L88.5409 294.77Z" fill="#BE9230"/>
<path d="M87.7909 294.77L78.1609 289.19L75.9609 290.47L85.6108 296.05L87.7909 294.77Z" fill="#A6792B"/>
<path d="M85.6104 296.48L75.2104 290.48L75.1904 294.92L85.6003 300.93L85.6104 296.48Z" fill="#BE9230"/>
<g style="mix-blend-mode:multiply" opacity="0.5">
<path d="M87.7899 294.77L78.1699 289.2V289.64L87.4099 294.99L87.7899 294.77Z" fill="#BE9230"/>
</g>
<g style="mix-blend-mode:multiply" opacity="0.8">
<path d="M78.1709 289.64V289.2L78.1609 289.19L75.9609 290.47L76.3309 290.69L78.1609 289.63L78.1709 289.64Z" fill="#BE9230"/>
</g>
<path d="M67.7997 264.56L57.4397 258.58L57.3896 276.88L67.7496 282.86L67.7997 264.56Z" fill="#5F9D93"/>
<g style="mix-blend-mode:multiply">
<path d="M57.4397 258.58L57.3896 276.85L60.2897 275.24L60.3297 260.24L57.4397 258.58Z" fill="#5F9D93"/>
</g>
<g style="mix-blend-mode:multiply" opacity="0.5">
<path d="M67.7596 279.55L60.2897 275.24L57.3896 276.88L67.7496 282.86L67.7596 279.55Z" fill="#5F9D93"/>
</g>
<path d="M67.7997 264.56L57.3896 258.56V276.87L67.7496 282.87L67.7997 264.56ZM66.2697 280.29L58.8796 276.03V266.93L66.2697 271.3V280.29ZM66.2697 269.59L58.8796 265.22V261.15L66.2697 265.41V269.59Z" fill="#A6792B"/>
<path d="M67.7605 282.6L64.8306 284.31L64.8105 288.76L67.7605 287.04V282.6Z" fill="#A6792B"/>
<path d="M57.3799 276.59L54.4199 278.31L64.83 284.31L67.7599 282.6L57.3799 276.59Z" fill="#BE9230"/>
<path d="M57.3796 277.03L55.1797 278.31L64.8197 283.88L67.0096 282.6L57.3796 277.03Z" fill="#A6792B"/>
<path d="M54.4202 278.31L54.4102 282.75L64.8102 288.76L64.8302 284.31L54.4202 278.31Z" fill="#BE9230"/>
<g style="mix-blend-mode:multiply" opacity="0.5">
<path d="M57.3906 277.04V277.47L66.6306 282.82L67.0106 282.6L57.3906 277.04Z" fill="#BE9230"/>
</g>
<g style="mix-blend-mode:multiply" opacity="0.8">
<path d="M57.3896 277.47V277.04L57.3796 277.03L55.1797 278.31L55.5497 278.52L57.3696 277.46L57.3896 277.47Z" fill="#BE9230"/>
</g>
<path d="M36.6604 246.41L36.6104 264.71L46.9703 270.69L47.0204 252.39L36.6604 246.41Z" fill="#5F9D93"/>
<g style="mix-blend-mode:multiply">
<path d="M36.6604 246.41L36.6104 264.68L39.5104 263.07L39.5504 248.08L36.6604 246.41Z" fill="#5F9D93"/>
</g>
<g style="mix-blend-mode:multiply" opacity="0.5">
<path d="M39.5104 263.07L36.6104 264.71L46.9703 270.69L46.9803 267.38L39.5104 263.07Z" fill="#5F9D93"/>
</g>
<path d="M36.6504 246.41V264.72L47.0104 270.72L47.0604 252.41L36.6504 246.41ZM45.5304 268.12L38.1404 263.86V254.76L45.5304 259.13V268.12ZM45.5304 257.42L38.1404 253.05V248.98L45.5304 253.24V257.42Z" fill="#A6792B"/>
<path d="M44.0403 272.15L44.0303 276.59L46.9802 274.88V270.43L44.0403 272.15Z" fill="#A6792B"/>
<path d="M36.5896 264.42L33.6396 266.14L44.0397 272.15L46.9796 270.43L36.5896 264.42Z" fill="#BE9230"/>
<path d="M36.5896 264.86L34.3896 266.14L44.0397 271.71L46.2296 270.43L36.5896 264.86Z" fill="#A6792B"/>
<path d="M33.6399 266.14L33.6299 270.58L44.0299 276.59L44.0399 272.15L33.6399 266.14Z" fill="#BE9230"/>
<g style="mix-blend-mode:multiply" opacity="0.5">
<path d="M36.6094 264.87V265.31L45.8494 270.65L46.2294 270.43L36.6094 264.87Z" fill="#BE9230"/>
</g>
<g style="mix-blend-mode:multiply" opacity="0.8">
<path d="M36.6096 265.31V264.87L36.5896 264.86L34.3896 266.14L34.7697 266.36L36.5896 265.3L36.6096 265.31Z" fill="#BE9230"/>
</g>
<path d="M88.58 310.24L78.2299 304.26L78.1699 322.57L88.5299 328.55L88.58 310.24Z" fill="#5F9D93"/>
<g style="mix-blend-mode:multiply">
<path d="M78.2299 304.26L78.1699 322.54L81.0699 320.93L81.1099 305.93L78.2299 304.26Z" fill="#5F9D93"/>
</g>
<g style="mix-blend-mode:multiply" opacity="0.5">
<path d="M88.5399 325.24L81.0699 320.93L78.1699 322.57L88.5299 328.55L88.5399 325.24Z" fill="#5F9D93"/>
</g>
<path d="M88.58 310.24L78.1699 304.24V322.56L88.5299 328.56L88.58 310.24ZM87.0499 325.97L79.6599 321.71V312.61L87.0499 316.98V325.97ZM87.0499 315.27L79.6599 310.9V306.83L87.0499 311.09V315.27Z" fill="#A6792B"/>
<path d="M88.5406 328.29L85.6106 330L85.6006 334.45L88.5406 332.73V328.29Z" fill="#A6792B"/>
<path d="M88.5409 328.29L78.1609 322.28L75.2109 324L85.6108 330L88.5409 328.29Z" fill="#BE9230"/>
<path d="M87.7909 328.29L78.1609 322.71L75.9609 323.99L85.6108 329.57L87.7909 328.29Z" fill="#A6792B"/>
<path d="M85.6104 330L75.2104 324L75.1904 328.44L85.6003 334.45L85.6104 330Z" fill="#BE9230"/>
<g style="mix-blend-mode:multiply" opacity="0.5">
<path d="M87.7899 328.29L78.1699 322.72V323.16L87.4099 328.51L87.7899 328.29Z" fill="#BE9230"/>
</g>
<g style="mix-blend-mode:multiply" opacity="0.8">
<path d="M78.1709 323.16V322.72L78.1609 322.71L75.9609 323.99L76.3309 324.21L78.1609 323.15L78.1709 323.16Z" fill="#BE9230"/>
</g>
<path d="M67.7997 298.08L57.4397 292.1L57.3896 310.4L67.7496 316.38L67.7997 298.08Z" fill="#5F9D93"/>
<g style="mix-blend-mode:multiply">
<path d="M57.4397 292.1L57.3896 310.37L60.2897 308.76L60.3297 293.76L57.4397 292.1Z" fill="#5F9D93"/>
</g>
<g style="mix-blend-mode:multiply" opacity="0.5">
<path d="M67.7596 313.07L60.2897 308.76L57.3896 310.4L67.7496 316.38L67.7596 313.07Z" fill="#5F9D93"/>
</g>
<path d="M67.7997 298.08L57.3896 292.08V310.39L67.7496 316.39L67.7997 298.08ZM66.2697 313.81L58.8796 309.55V300.45L66.2697 304.82V313.81ZM66.2697 303.11L58.8796 298.74V294.67L66.2697 298.93V303.11Z" fill="#A6792B"/>
<path d="M67.7605 316.12L64.8306 317.83L64.8105 322.28L67.7605 320.56V316.12Z" fill="#A6792B"/>
<path d="M57.3799 310.11L54.4199 311.83L64.83 317.83L67.7599 316.12L57.3799 310.11Z" fill="#BE9230"/>
<path d="M57.3796 310.55L55.1797 311.83L64.8197 317.4L67.0096 316.12L57.3796 310.55Z" fill="#A6792B"/>
<path d="M54.4202 311.83L54.4102 316.27L64.8102 322.28L64.8302 317.83L54.4202 311.83Z" fill="#BE9230"/>
<g style="mix-blend-mode:multiply" opacity="0.5">
<path d="M57.3906 310.56V310.99L66.6306 316.34L67.0106 316.12L57.3906 310.56Z" fill="#BE9230"/>
</g>
<g style="mix-blend-mode:multiply" opacity="0.8">
<path d="M57.3896 310.99V310.56L57.3796 310.55L55.1797 311.83L55.5497 312.04L57.3696 310.98L57.3896 310.99Z" fill="#BE9230"/>
</g>
<path d="M36.6604 279.93L36.6104 298.23L46.9703 304.21L47.0204 285.91L36.6604 279.93Z" fill="#5F9D93"/>
<g style="mix-blend-mode:multiply">
<path d="M36.6604 279.93L36.6104 298.2L39.5104 296.59L39.5504 281.6L36.6604 279.93Z" fill="#5F9D93"/>
</g>
<g style="mix-blend-mode:multiply" opacity="0.5">
<path d="M39.5104 296.59L36.6104 298.23L46.9703 304.21L46.9803 300.9L39.5104 296.59Z" fill="#5F9D93"/>
</g>
<path d="M36.6504 279.93V298.24L47.0104 304.24L47.0604 285.93L36.6504 279.93ZM45.5304 301.64L38.1404 297.38V288.28L45.5304 292.65V301.64ZM45.5304 290.94L38.1404 286.57V282.5L45.5304 286.76V290.94Z" fill="#A6792B"/>
<path d="M44.0403 305.67L44.0303 310.11L46.9802 308.4V303.95L44.0403 305.67Z" fill="#A6792B"/>
<path d="M36.5896 297.94L33.6396 299.66L44.0397 305.67L46.9796 303.95L36.5896 297.94Z" fill="#BE9230"/>
<path d="M36.5896 298.38L34.3896 299.66L44.0397 305.23L46.2296 303.95L36.5896 298.38Z" fill="#A6792B"/>
<path d="M33.6399 299.66L33.6299 304.1L44.0299 310.11L44.0399 305.67L33.6399 299.66Z" fill="#BE9230"/>
<g style="mix-blend-mode:multiply" opacity="0.5">
<path d="M36.6094 298.39V298.83L45.8494 304.17L46.2294 303.95L36.6094 298.39Z" fill="#BE9230"/>
</g>
<g style="mix-blend-mode:multiply" opacity="0.8">
<path d="M36.6096 298.83V298.39L36.5896 298.38L34.3896 299.66L34.7697 299.88L36.5896 298.82L36.6096 298.83Z" fill="#BE9230"/>
</g>
<path d="M57.4502 334.37C52.9502 331.77 49.2801 333.86 49.2701 339.04L49.2002 363.04L65.5201 372.47L65.5901 348.47C65.6501 343.29 61.9602 336.98 57.4502 334.37Z" fill="#E9AD21" stroke="#25A9E0" stroke-width="0.1" stroke-miterlimit="10"/>
<g style="mix-blend-mode:multiply" opacity="0.5">
<path d="M58.4399 335.05L58.6799 335.2C58.29 334.903 57.8826 334.629 57.46 334.38C52.96 331.78 49.2899 333.87 49.2799 339.05L49.21 363.05L50.21 363.62L50.2799 339.77C50.2699 334.56 53.9399 332.45 58.4399 335.05Z" fill="#8B6621"/>
</g>
<g style="mix-blend-mode:multiply">
<g style="mix-blend-mode:multiply">
<path d="M62.8496 356.01C62.8261 355.675 62.7232 355.351 62.5493 355.064C62.3754 354.777 62.1355 354.536 61.8496 354.36C61.3196 354.05 60.8496 354.3 60.8496 354.9C60.8723 355.235 60.9749 355.559 61.1489 355.846C61.3229 356.134 61.5632 356.375 61.8496 356.55C62.4096 356.86 62.8396 356.62 62.8496 356.01Z" fill="#7D5B1B"/>
</g>
</g>
<path d="M65.6501 372.46L49.3501 363.09L43.9801 366.33V372.43L38.6201 375.6V381.75L54.7102 391.04L65.6501 384.65V372.46Z" fill="#966E25"/>
<path d="M65.4406 372.46V372.39L49.3505 363.09V363.17L43.9805 366.27V366.33L60.0806 375.62V375.56L65.4406 372.46Z" fill="#A6792B"/>
<path d="M60.0802 381.75V381.72L43.9801 372.43V372.46L38.6201 375.56V375.6L54.7102 384.89V384.85L60.0802 381.75Z" fill="#A6792B"/>
<path d="M38.6201 375.6V381.75L54.7102 391.04V384.89L38.6201 375.6Z" fill="#966E25"/>
<path d="M43.9805 366.33V372.43L60.0806 381.72V375.62L43.9805 366.33Z" fill="#966E25"/>
</svg>
