<svg width="229" height="273" viewBox="0 0 229 273" fill="none" xmlns="http://www.w3.org/2000/svg">
<g style="mix-blend-mode:multiply">
<path d="M214.86 216.11V239.19L212.84 240.26V217.27L214.86 216.11Z" fill="#76C1B4"/>
</g>
<path d="M38.03 86.08L38.49 249.11L0.459961 227.01L0 63.97L38.03 86.08Z" fill="#909194"/>
<path d="M76.6302 63.79L77.1002 226.83L38.4902 249.11L38.0303 86.08L76.6302 63.79Z" fill="#BEBFC1"/>
<path d="M76.6299 63.79L155.97 109.89L156.43 272.93L77.0999 226.83L76.6299 63.79Z" fill="#909194"/>
<path d="M155.97 109.89L228.17 68.21L228.63 231.24L156.43 272.93L155.97 109.89Z" fill="#BEBFC1"/>
<path d="M76.63 63.79L38.03 86.08L0 63.97L110.8 0L228.17 68.21L155.97 109.89L76.63 63.79Z" fill="#D0D2D3"/>
<path d="M76.6503 54.2101L38.0403 76.5001L16.5303 64.0001L110.79 9.58008L211.63 68.1801L155.98 100.31L76.6503 54.2101Z" fill="#BBBDBF"/>
<g style="mix-blend-mode:multiply">
<g style="mix-blend-mode:multiply" opacity="0.5">
<path d="M110.801 9.59009L211.631 68.1801L205.351 71.8101L110.801 16.8701V9.59009Z" fill="#B3B3B3"/>
</g>
<g style="mix-blend-mode:multiply" opacity="0.7">
<path d="M16.5303 64.0001L110.79 9.58008L110.8 9.59007V16.8701L110.79 16.8601L22.8203 67.6501L16.5303 64.0001Z" fill="#B3B3B3"/>
</g>
</g>
<path d="M93.6904 213.62L132.71 235.93V259.26L93.6904 236.44V213.62Z" fill="#76C1B4"/>
<g style="mix-blend-mode:multiply">
<path d="M95.5903 214.83V237.55L93.6904 236.44V213.62L95.5903 214.83Z" fill="#76C1B4"/>
</g>
<path d="M95.5898 214.83L134.61 237.13V260.46L95.5898 237.65V214.83Z" fill="#76C1B4"/>
<path d="M113.38 224.88V247.95L113.021 247.74V224.67L113.38 224.88Z" fill="white"/>
<path d="M214.86 216.11V239.19L175.84 261.74V238.41L214.86 216.11Z" fill="#76C1B4"/>
<path d="M77.0999 189.54L156.1 235.27L143.27 242.68L64.1299 197.01L77.0999 189.54Z" fill="#D0D2D3"/>
<path d="M77.0999 184.21L156.1 229.94L143.27 237.35L64.1299 191.68L77.0999 184.21Z" fill="#D0D2D3"/>
<path d="M156.1 229.94V235.27L143.271 242.68V237.35L156.1 229.94Z" fill="#BBBDBF"/>
<path d="M64.1299 191.68L143.27 237.35V242.68L64.1299 197.01V191.68Z" fill="#BEBFC1"/>
<path d="M195.53 227.16V250.23L195.17 250.44V227.36L195.53 227.16Z" fill="white"/>
<path d="M170.5 236.94L221.21 207.47L221.191 212.97L170.48 242.44L170.5 236.94Z" fill="#909194"/>
<path d="M220.219 206.91L221.209 207.47L170.5 236.94L169.52 236.38L220.219 206.91Z" fill="#D0D2D3"/>
<path d="M169.52 236.38L170.5 236.94L170.48 242.44L169.5 241.88L169.52 236.38Z" fill="#BEBFC1"/>
<path d="M27.7405 129.34L31.1105 131.29L30.9305 194.73L27.5605 192.78L27.7405 129.34Z" fill="#C5C5C5"/>
<path d="M28.5798 192.19L31.9498 194.14L29.9198 195.32L26.5498 193.37L28.5798 192.19Z" fill="#68AB9F"/>
<path d="M26.7297 129.92L28.7598 128.75L28.5798 192.19L26.5498 193.37L26.7297 129.92Z" fill="#457971"/>
<path d="M31.9098 130.84L33.9398 129.66L33.7397 197.25L31.7197 198.42L31.9098 130.84Z" fill="#457971"/>
<path d="M26.9703 125.64L33.9404 129.66L31.9104 130.84L24.9404 126.82L26.9703 125.64Z" fill="#68AB9F"/>
<path d="M24.75 194.4L31.75 198.4L31.9401 130.82L24.9401 126.82L24.75 194.4ZM26.55 193.4L26.73 129.96L30.1 131.91L29.92 195.35L26.55 193.4Z" fill="#5F9D93"/>
<path d="M17.1605 123.21L20.5305 125.16L20.3505 188.61L16.9805 186.66L17.1605 123.21Z" fill="#C5C5C5"/>
<path d="M17.9897 186.07L21.3698 188.01L19.3397 189.19L15.9697 187.24L17.9897 186.07Z" fill="#68AB9F"/>
<path d="M16.1498 123.8L18.1698 122.62L17.9897 186.07L15.9697 187.24L16.1498 123.8Z" fill="#457971"/>
<path d="M21.3199 124.72L23.3499 123.54L23.1599 191.12L21.1299 192.3L21.3199 124.72Z" fill="#457971"/>
<path d="M16.3894 119.52L23.3494 123.54L21.3195 124.72L14.3594 120.7L16.3894 119.52Z" fill="#68AB9F"/>
<path d="M14.1699 188.28L21.1699 192.28L21.3599 124.7L14.3599 120.7L14.1699 188.28ZM15.9698 187.28L16.1499 123.84L19.5199 125.79L19.3398 189.23L15.9698 187.28Z" fill="#5F9D93"/>
<path d="M6.67029 117.17L10.0403 119.11L9.86023 182.56L6.49023 180.61L6.67029 117.17Z" fill="#C5C5C5"/>
<path d="M7.5105 180.02L10.8805 181.96L8.85046 183.14L5.48047 181.2L7.5105 180.02Z" fill="#68AB9F"/>
<path d="M5.66052 117.75L7.69055 116.57L7.5105 180.02L5.48047 181.2L5.66052 117.75Z" fill="#457971"/>
<path d="M10.8406 118.67L12.8606 117.49L12.6707 185.07L10.6406 186.25L10.8406 118.67Z" fill="#457971"/>
<path d="M5.90112 113.47L12.8611 117.49L10.8411 118.67L3.87109 114.65L5.90112 113.47Z" fill="#68AB9F"/>
<path d="M3.68066 182.23L10.6807 186.23L10.8706 118.65L3.87061 114.65L3.68066 182.23ZM5.48059 181.23L5.66064 117.79L9.03064 119.74L8.85059 183.18L5.48059 181.23Z" fill="#5F9D93"/>
<path d="M134.54 115.65L143.26 120.69L143.23 130.7L134.51 125.67L134.54 115.65Z" fill="#C5C5C5"/>
<path d="M135.101 125.33L143.821 130.36L142.651 131.05L133.931 126.01L135.101 125.33Z" fill="#68AB9F"/>
<path d="M133.961 115.99L135.131 115.31L135.101 125.33L133.931 126.01L133.961 115.99Z" fill="#457971"/>
<path d="M144.49 119.99L145.66 119.31L145.63 133.49L144.45 134.17L144.49 119.99Z" fill="#457971"/>
<path d="M133.32 112.18L145.66 119.31L144.49 119.99L132.15 112.86L133.32 112.18Z" fill="#68AB9F"/>
<path d="M132.11 127.05L144.45 134.18V120L132.15 112.89L132.11 127.05ZM133.93 126.05V116.05L142.65 121.05V131.05L133.93 126.05Z" fill="#5F9D93"/>
<path d="M115.82 104.66L124.54 109.69L124.51 119.71L115.8 114.68L115.82 104.66Z" fill="#C5C5C5"/>
<path d="M116.38 114.33L125.1 119.37L123.93 120.05L115.21 115.02L116.38 114.33Z" fill="#68AB9F"/>
<path d="M115.24 105L116.41 104.32L116.38 114.33L115.21 115.02L115.24 105Z" fill="#457971"/>
<path d="M125.77 109L126.95 108.31L126.91 122.5L125.729 123.18L125.77 109Z" fill="#457971"/>
<path d="M114.6 101.19L126.95 108.31L125.77 109L113.43 101.87L114.6 101.19Z" fill="#68AB9F"/>
<path d="M113.39 116.05L125.73 123.18V109L113.43 101.89L113.39 116.05ZM115.21 115.05V105.05L123.93 110.05V120.05L115.21 115.05Z" fill="#5F9D93"/>
<path d="M97.0701 93.6599L105.79 98.6999L105.76 108.71L97.04 103.68L97.0701 93.6599Z" fill="#C5C5C5"/>
<path d="M97.63 103.34L106.35 108.37L105.17 109.05L96.46 104.02L97.63 103.34Z" fill="#68AB9F"/>
<path d="M96.48 93.9998L97.66 93.3198L97.63 103.34L96.46 104.02L96.48 93.9998Z" fill="#457971"/>
<path d="M107.02 97.9998L108.19 97.3198L108.15 111.5L106.979 112.18L107.02 97.9998Z" fill="#457971"/>
<path d="M95.8496 90.1899L108.19 97.3199L107.02 97.9999L94.6797 90.8799L95.8496 90.1899Z" fill="#68AB9F"/>
<path d="M94.6396 105.06L106.98 112.19V98.0099L94.6797 90.8899L94.6396 105.06ZM96.4596 104.06V94.0599L105.18 99.0599V109.06L96.4596 104.06Z" fill="#5F9D93"/>
<path d="M78.3699 82.6699L87.0898 87.6999L87.0599 97.7199L78.3398 92.6899L78.3699 82.6699Z" fill="#C5C5C5"/>
<path d="M78.921 92.3499L87.641 97.3799L86.4709 98.0598L77.751 93.0298L78.921 92.3499Z" fill="#68AB9F"/>
<path d="M77.781 83.0101L78.951 82.3301L78.921 92.3501L77.751 93.0301L77.781 83.0101Z" fill="#457971"/>
<path d="M88.3203 87.0098L89.4902 86.3198L89.4503 100.51L88.2803 101.19L88.3203 87.0098Z" fill="#457971"/>
<path d="M77.1508 79.2L89.4907 86.3199L88.3208 87.0099L75.9707 79.88L77.1508 79.2Z" fill="#68AB9F"/>
<path d="M75.9307 94.0599L88.2706 101.19V87.0099L75.9706 79.8899L75.9307 94.0599ZM77.7506 93.0599V83.0599L86.4706 88.0599V98.0599L77.7506 93.0599Z" fill="#5F9D93"/>
<path d="M134.54 141.55L143.26 146.59L143.23 156.6L134.51 151.57L134.54 141.55Z" fill="#C5C5C5"/>
<path d="M135.101 151.23L143.821 156.26L142.651 156.95L133.931 151.91L135.101 151.23Z" fill="#68AB9F"/>
<path d="M133.961 141.89L135.131 141.21L135.101 151.23L133.931 151.91L133.961 141.89Z" fill="#457971"/>
<path d="M144.49 145.89L145.66 145.21L145.63 159.39L144.45 160.07L144.49 145.89Z" fill="#457971"/>
<path d="M133.32 138.08L145.66 145.21L144.49 145.89L132.15 138.77L133.32 138.08Z" fill="#68AB9F"/>
<path d="M132.11 152.95L144.45 160.08V145.9L132.11 138.77V152.95ZM133.93 151.95V141.95L142.65 146.95V156.95L133.93 151.95Z" fill="#5F9D93"/>
<path d="M115.82 130.56L124.54 135.59L124.51 145.61L115.8 140.58L115.82 130.56Z" fill="#C5C5C5"/>
<path d="M116.38 140.23L125.1 145.27L123.93 145.95L115.21 140.92L116.38 140.23Z" fill="#68AB9F"/>
<path d="M115.24 130.9L116.41 130.22L116.38 140.23L115.21 140.92L115.24 130.9Z" fill="#457971"/>
<path d="M125.77 134.9L126.95 134.21L126.91 148.4L125.729 149.08L125.77 134.9Z" fill="#457971"/>
<path d="M114.6 127.09L126.95 134.21L125.77 134.9L113.43 127.77L114.6 127.09Z" fill="#68AB9F"/>
<path d="M113.39 141.95L125.73 149.08V134.9L113.39 127.77V141.95ZM115.21 140.95V130.95L123.93 135.95V145.95L115.21 140.95Z" fill="#5F9D93"/>
<path d="M97.0701 119.56L105.79 124.6L105.76 134.61L97.04 129.58L97.0701 119.56Z" fill="#C5C5C5"/>
<path d="M97.63 129.24L106.35 134.27L105.17 134.95L96.46 129.92L97.63 129.24Z" fill="#68AB9F"/>
<path d="M96.48 119.9L97.66 119.22L97.63 129.24L96.46 129.92L96.48 119.9Z" fill="#457971"/>
<path d="M107.02 123.9L108.19 123.22L108.15 137.4L106.979 138.08L107.02 123.9Z" fill="#457971"/>
<path d="M95.8496 116.09L108.19 123.22L107.02 123.9L94.6797 116.77L95.8496 116.09Z" fill="#68AB9F"/>
<path d="M94.6396 130.96L106.98 138.09V123.91L94.6396 116.78V130.96ZM96.4596 129.96V119.96L105.18 124.96V134.96L96.4596 129.96Z" fill="#5F9D93"/>
<path d="M78.3699 108.57L87.0898 113.6L87.0599 123.62L78.3398 118.59L78.3699 108.57Z" fill="#C5C5C5"/>
<path d="M78.921 118.24L87.641 123.28L86.4709 123.96L77.751 118.93L78.921 118.24Z" fill="#68AB9F"/>
<path d="M77.781 108.91L78.951 108.23L78.921 118.24L77.751 118.93L77.781 108.91Z" fill="#457971"/>
<path d="M88.3203 112.91L89.4902 112.22L89.4503 126.41L88.2803 127.09L88.3203 112.91Z" fill="#457971"/>
<path d="M77.1508 105.1L89.4907 112.22L88.3208 112.91L75.9707 105.78L77.1508 105.1Z" fill="#68AB9F"/>
<path d="M75.9307 119.96L88.2706 127.09V112.91L75.9307 105.78V119.96ZM77.7506 118.96V108.96L86.4706 113.96V123.96L77.7506 118.96Z" fill="#5F9D93"/>
<path d="M134.54 167.45L143.26 172.49L143.23 182.5L134.51 177.47L134.54 167.45Z" fill="#C5C5C5"/>
<path d="M135.101 177.13L143.821 182.16L142.651 182.85L133.931 177.81L135.101 177.13Z" fill="#68AB9F"/>
<path d="M133.961 167.79L135.131 167.11L135.101 177.13L133.931 177.81L133.961 167.79Z" fill="#457971"/>
<path d="M144.49 171.79L145.66 171.11L145.63 185.29L144.45 185.97L144.49 171.79Z" fill="#457971"/>
<path d="M133.32 163.98L145.66 171.11L144.49 171.79L132.15 164.67L133.32 163.98Z" fill="#68AB9F"/>
<path d="M132.11 178.89L144.45 186.02V171.84L132.11 164.71V178.89ZM133.93 177.89V167.89L142.65 172.89V182.89L133.93 177.89Z" fill="#5F9D93"/>
<path d="M115.82 156.46L124.54 161.49L124.51 171.51L115.8 166.48L115.82 156.46Z" fill="#C5C5C5"/>
<path d="M116.38 166.14L125.1 171.17L123.93 171.85L115.21 166.82L116.38 166.14Z" fill="#68AB9F"/>
<path d="M115.24 156.8L116.41 156.12L116.38 166.14L115.21 166.82L115.24 156.8Z" fill="#457971"/>
<path d="M125.77 160.8L126.95 160.11L126.91 174.3L125.729 174.98L125.77 160.8Z" fill="#457971"/>
<path d="M114.6 152.99L126.95 160.11L125.77 160.8L113.43 153.67L114.6 152.99Z" fill="#68AB9F"/>
<path d="M113.39 167.89L125.73 175.02V160.84L113.39 153.71V167.89ZM115.21 166.89V156.89L123.93 161.89V171.89L115.21 166.89Z" fill="#5F9D93"/>
<path d="M97.0701 145.46L105.79 150.5L105.76 160.51L97.04 155.48L97.0701 145.46Z" fill="#C5C5C5"/>
<path d="M97.63 155.14L106.35 160.17L105.17 160.86L96.46 155.82L97.63 155.14Z" fill="#68AB9F"/>
<path d="M96.48 145.8L97.66 145.12L97.63 155.14L96.46 155.82L96.48 145.8Z" fill="#457971"/>
<path d="M107.02 149.8L108.19 149.12L108.15 163.3L106.979 163.98L107.02 149.8Z" fill="#457971"/>
<path d="M95.8496 141.99L108.19 149.12L107.02 149.8L94.6797 142.67L95.8496 141.99Z" fill="#68AB9F"/>
<path d="M94.6396 156.89L106.98 164.02V149.84L94.6396 142.71V156.89ZM96.4596 155.89V145.89L105.18 150.89V160.89L96.4596 155.89Z" fill="#5F9D93"/>
<path d="M78.3699 134.47L87.0898 139.5L87.0599 149.52L78.3398 144.49L78.3699 134.47Z" fill="#C5C5C5"/>
<path d="M78.921 144.14L87.641 149.18L86.4709 149.86L77.751 144.83L78.921 144.14Z" fill="#68AB9F"/>
<path d="M77.781 134.81L78.951 134.13L78.921 144.14L77.751 144.83L77.781 134.81Z" fill="#457971"/>
<path d="M88.3203 138.81L89.4902 138.12L89.4503 152.31L88.2803 152.99L88.3203 138.81Z" fill="#457971"/>
<path d="M77.1508 131L89.4907 138.12L88.3208 138.81L75.9707 131.68L77.1508 131Z" fill="#68AB9F"/>
<path d="M75.9307 145.89L88.2706 152.99V138.81L75.9307 131.68V145.89ZM77.7506 144.89V134.89L86.4706 139.89V149.89L77.7506 144.89Z" fill="#5F9D93"/>
<path d="M134.54 193.35L143.26 198.39L143.23 208.4L134.51 203.37L134.54 193.35Z" fill="#C5C5C5"/>
<path d="M135.101 203.03L143.821 208.06L142.651 208.75L133.931 203.71L135.101 203.03Z" fill="#68AB9F"/>
<path d="M133.961 193.69L135.131 193.01L135.101 203.03L133.931 203.71L133.961 193.69Z" fill="#457971"/>
<path d="M144.49 197.69L145.66 197.01L145.63 211.19L144.45 211.87L144.49 197.69Z" fill="#457971"/>
<path d="M133.32 189.88L145.66 197.01L144.49 197.69L132.15 190.57L133.32 189.88Z" fill="#68AB9F"/>
<path d="M132.11 204.75L144.45 211.88V197.7L132.11 190.57V204.75ZM133.93 203.75V193.75L142.65 198.75V208.75L133.93 203.75Z" fill="#5F9D93"/>
<path d="M115.82 182.36L124.54 187.39L124.51 197.41L115.8 192.38L115.82 182.36Z" fill="#C5C5C5"/>
<path d="M116.38 192.04L125.1 197.07L123.93 197.75L115.21 192.72L116.38 192.04Z" fill="#68AB9F"/>
<path d="M115.24 182.7L116.41 182.02L116.38 192.04L115.21 192.72L115.24 182.7Z" fill="#457971"/>
<path d="M125.77 186.7L126.95 186.01L126.91 200.2L125.729 200.88L125.77 186.7Z" fill="#457971"/>
<path d="M114.6 178.89L126.95 186.01L125.77 186.7L113.43 179.57L114.6 178.89Z" fill="#68AB9F"/>
<path d="M113.39 193.75L125.73 200.88V186.7L113.39 179.57V193.75ZM115.21 192.75V182.75L123.93 187.75V197.75L115.21 192.75Z" fill="#5F9D93"/>
<path d="M97.0701 171.36L105.79 176.4L105.76 186.42L97.04 181.38L97.0701 171.36Z" fill="#C5C5C5"/>
<path d="M97.63 181.04L106.35 186.07L105.17 186.76L96.46 181.72L97.63 181.04Z" fill="#68AB9F"/>
<path d="M96.48 171.7L97.66 171.02L97.63 181.04L96.46 181.72L96.48 171.7Z" fill="#457971"/>
<path d="M107.02 175.7L108.19 175.02L108.15 189.2L106.979 189.88L107.02 175.7Z" fill="#457971"/>
<path d="M95.8496 167.89L108.19 175.02L107.02 175.7L94.6797 168.58L95.8496 167.89Z" fill="#68AB9F"/>
<path d="M94.6396 182.76L106.98 189.89V175.71L94.6396 168.58V182.76ZM96.4596 181.76V171.76L105.18 176.76V186.76L96.4596 181.76Z" fill="#5F9D93"/>
<path d="M78.3699 160.37L87.0898 165.4L87.0599 175.42L78.3398 170.39L78.3699 160.37Z" fill="#C5C5C5"/>
<path d="M78.921 170.05L87.641 175.08L86.4709 175.76L77.751 170.73L78.921 170.05Z" fill="#68AB9F"/>
<path d="M77.781 160.71L78.951 160.03L78.921 170.05L77.751 170.73L77.781 160.71Z" fill="#457971"/>
<path d="M88.3203 164.71L89.4902 164.02L89.4503 178.21L88.2803 178.89L88.3203 164.71Z" fill="#457971"/>
<path d="M77.1508 156.9L89.4907 164.02L88.3208 164.71L75.9707 157.58L77.1508 156.9Z" fill="#68AB9F"/>
<path d="M75.9307 171.76L88.2706 178.89V164.71L75.9307 157.58V171.76ZM77.7506 170.76V160.76L86.4706 165.76V175.76L77.7506 170.76Z" fill="#5F9D93"/>
<path d="M179.3 119.19L179.33 129.21L170.61 134.25L170.58 124.23L179.3 119.19Z" fill="#C5C5C5"/>
<path d="M178.74 128.87L179.91 129.55L171.19 134.59L170.02 133.91L178.74 128.87Z" fill="#68AB9F"/>
<path d="M179.88 119.54L179.91 129.55L178.74 128.87L178.71 118.85L179.88 119.54Z" fill="#457971"/>
<path d="M169.35 123.53L169.39 137.71L168.21 137.03L168.17 122.85L169.35 123.53Z" fill="#457971"/>
<path d="M180.52 115.73L181.69 116.41L169.35 123.53L168.17 122.85L180.52 115.73Z" fill="#68AB9F"/>
<path d="M169.35 123.53V137.71L181.69 130.58V116.4L169.35 123.53ZM171.17 124.53L179.89 119.53V129.53L171.17 134.53V124.53Z" fill="#5F9D93"/>
<path d="M198.05 108.2L198.08 118.22L189.36 123.25L189.33 113.23L198.05 108.2Z" fill="#C5C5C5"/>
<path d="M197.49 117.88L198.661 118.56L189.941 123.59L188.771 122.91L197.49 117.88Z" fill="#68AB9F"/>
<path d="M198.641 108.54L198.661 118.56L197.491 117.88L197.461 107.86L198.641 108.54Z" fill="#457971"/>
<path d="M188.101 112.54L188.141 126.72L186.971 126.04L186.931 111.86L188.101 112.54Z" fill="#457971"/>
<path d="M199.271 104.73L200.441 105.41L188.101 112.54L186.931 111.86L199.271 104.73Z" fill="#68AB9F"/>
<path d="M188.101 112.54V126.72L200.441 119.59V105.41L188.101 112.54ZM189.921 113.54L198.641 108.54V118.54L189.921 123.54V113.54Z" fill="#5F9D93"/>
<path d="M216.75 97.2L216.78 107.22L208.06 112.26L208.04 102.24L216.75 97.2Z" fill="#C5C5C5"/>
<path d="M216.19 106.88L217.37 107.56L208.65 112.6L207.479 111.92L216.19 106.88Z" fill="#68AB9F"/>
<path d="M217.34 97.5499L217.37 107.56L216.19 106.88L216.17 96.8599L217.34 97.5499Z" fill="#457971"/>
<path d="M206.8 101.54L206.84 115.73L205.67 115.04L205.63 100.86L206.8 101.54Z" fill="#457971"/>
<path d="M217.97 93.74L219.15 94.42L206.8 101.54L205.63 100.86L217.97 93.74Z" fill="#68AB9F"/>
<path d="M206.8 101.54V115.72L219.14 108.59V94.4099L206.8 101.54ZM208.62 102.54L217.34 97.5399V107.54L208.62 112.54V102.54Z" fill="#5F9D93"/>
<path d="M179.3 145.09L179.33 155.11L170.61 160.15L170.58 150.13L179.3 145.09Z" fill="#C5C5C5"/>
<path d="M178.74 154.77L179.91 155.45L171.19 160.49L170.02 159.81L178.74 154.77Z" fill="#68AB9F"/>
<path d="M179.88 145.43L179.91 155.45L178.74 154.77L178.71 144.75L179.88 145.43Z" fill="#457971"/>
<path d="M169.35 149.43L169.39 163.61L168.21 162.93L168.17 148.75L169.35 149.43Z" fill="#457971"/>
<path d="M180.52 141.63L181.69 142.31L169.35 149.43L168.17 148.75L180.52 141.63Z" fill="#68AB9F"/>
<path d="M169.35 149.43V163.61L181.69 156.48V142.3L169.35 149.43ZM171.17 150.43L179.89 145.43V155.43L171.17 160.43V150.43Z" fill="#5F9D93"/>
<path d="M198.05 134.1L198.08 144.12L189.36 149.15L189.33 139.13L198.05 134.1Z" fill="#C5C5C5"/>
<path d="M197.49 143.78L198.661 144.46L189.941 149.49L188.771 148.81L197.49 143.78Z" fill="#68AB9F"/>
<path d="M198.641 134.44L198.661 144.46L197.491 143.78L197.461 133.76L198.641 134.44Z" fill="#457971"/>
<path d="M188.101 138.44L188.141 152.62L186.971 151.94L186.931 137.76L188.101 138.44Z" fill="#457971"/>
<path d="M199.271 130.63L200.441 131.31L188.101 138.44L186.931 137.76L199.271 130.63Z" fill="#68AB9F"/>
<path d="M188.101 138.44V152.62L200.441 145.49V131.31L188.101 138.44ZM189.921 139.44L198.641 134.44V144.44L189.921 149.44V139.44Z" fill="#5F9D93"/>
<path d="M216.75 123.1L216.78 133.12L208.06 138.16L208.04 128.14L216.75 123.1Z" fill="#C5C5C5"/>
<path d="M216.19 132.78L217.37 133.46L208.65 138.5L207.479 137.82L216.19 132.78Z" fill="#68AB9F"/>
<path d="M217.34 123.45L217.37 133.46L216.19 132.78L216.17 122.76L217.34 123.45Z" fill="#457971"/>
<path d="M206.8 127.44L206.84 141.63L205.67 140.94L205.63 126.76L206.8 127.44Z" fill="#457971"/>
<path d="M217.97 119.64L219.15 120.32L206.8 127.44L205.63 126.76L217.97 119.64Z" fill="#68AB9F"/>
<path d="M206.8 127.44V141.62L219.14 134.49V120.31L206.8 127.44ZM208.62 128.44L217.34 123.44V133.44L208.62 138.44V128.44Z" fill="#5F9D93"/>
<path d="M179.3 170.99L179.33 181.01L170.61 186.05L170.58 176.03L179.3 170.99Z" fill="#C5C5C5"/>
<path d="M178.74 180.67L179.91 181.35L171.19 186.39L170.02 185.71L178.74 180.67Z" fill="#68AB9F"/>
<path d="M179.88 171.33L179.91 181.35L178.74 180.67L178.71 170.65L179.88 171.33Z" fill="#457971"/>
<path d="M169.35 175.33L169.39 189.52L168.21 188.83L168.17 174.65L169.35 175.33Z" fill="#457971"/>
<path d="M180.52 167.53L181.69 168.21L169.35 175.33L168.17 174.65L180.52 167.53Z" fill="#68AB9F"/>
<path d="M169.35 175.33V189.51L181.69 182.38V168.2L169.35 175.33ZM171.17 176.33L179.89 171.33V181.33L171.17 186.33V176.33Z" fill="#5F9D93"/>
<path d="M198.05 160L198.08 170.02L189.36 175.05L189.33 165.03L198.05 160Z" fill="#C5C5C5"/>
<path d="M197.49 169.68L198.661 170.36L189.941 175.39L188.771 174.71L197.49 169.68Z" fill="#68AB9F"/>
<path d="M198.641 160.34L198.661 170.36L197.491 169.68L197.461 159.66L198.641 160.34Z" fill="#457971"/>
<path d="M188.101 164.34L188.141 178.52L186.971 177.84L186.931 163.66L188.101 164.34Z" fill="#457971"/>
<path d="M199.271 156.53L200.441 157.21L188.101 164.34L186.931 163.66L199.271 156.53Z" fill="#68AB9F"/>
<path d="M188.101 164.34V178.52L200.441 171.39V157.21L188.101 164.34ZM189.921 165.34L198.641 160.34V170.34L189.921 175.34V165.34Z" fill="#5F9D93"/>
<path d="M216.75 149.01L216.78 159.02L208.06 164.06L208.04 154.04L216.75 149.01Z" fill="#C5C5C5"/>
<path d="M216.19 158.68L217.37 159.36L208.65 164.4L207.479 163.72L216.19 158.68Z" fill="#68AB9F"/>
<path d="M217.34 149.35L217.37 159.36L216.19 158.68L216.17 148.66L217.34 149.35Z" fill="#457971"/>
<path d="M206.8 153.34L206.84 167.53L205.67 166.84L205.63 152.66L206.8 153.34Z" fill="#457971"/>
<path d="M217.97 145.54L219.15 146.22L206.8 153.34L205.63 152.66L217.97 145.54Z" fill="#68AB9F"/>
<path d="M206.8 153.34V167.52L219.14 160.39V146.21L206.8 153.34ZM208.62 154.34L217.34 149.34V159.34L208.62 164.34V154.34Z" fill="#5F9D93"/>
<path d="M179.3 196.89L179.33 206.91L170.61 211.95L170.58 201.93L179.3 196.89Z" fill="#C5C5C5"/>
<path d="M178.74 206.57L179.91 207.25L171.19 212.29L170.02 211.61L178.74 206.57Z" fill="#68AB9F"/>
<path d="M179.88 197.24L179.91 207.25L178.74 206.57L178.71 196.55L179.88 197.24Z" fill="#457971"/>
<path d="M169.35 201.23L169.39 215.42L168.21 214.73L168.17 200.55L169.35 201.23Z" fill="#457971"/>
<path d="M180.52 193.43L181.69 194.11L169.35 201.23L168.17 200.55L180.52 193.43Z" fill="#68AB9F"/>
<path d="M169.35 201.23V215.41L181.69 208.28V194.1L169.35 201.23ZM171.17 202.23L179.89 197.23V207.23L171.17 212.23V202.23Z" fill="#5F9D93"/>
<path d="M198.05 185.9L198.08 195.92L189.36 200.95L189.33 190.93L198.05 185.9Z" fill="#C5C5C5"/>
<path d="M197.49 195.58L198.661 196.26L189.941 201.29L188.771 200.61L197.49 195.58Z" fill="#68AB9F"/>
<path d="M198.641 186.24L198.661 196.26L197.491 195.58L197.461 185.56L198.641 186.24Z" fill="#457971"/>
<path d="M188.101 190.24L188.141 204.42L186.971 203.74L186.931 189.56L188.101 190.24Z" fill="#457971"/>
<path d="M199.271 182.43L200.441 183.11L188.101 190.24L186.931 189.56L199.271 182.43Z" fill="#68AB9F"/>
<path d="M188.101 190.24V204.42L200.441 197.29V183.11L188.101 190.24ZM189.921 191.24L198.641 186.24V196.24L189.921 201.24V191.24Z" fill="#5F9D93"/>
<path d="M216.75 174.9L216.78 184.92L208.06 189.96L208.04 179.94L216.75 174.9Z" fill="#C5C5C5"/>
<path d="M216.19 184.58L217.37 185.26L208.65 190.3L207.479 189.62L216.19 184.58Z" fill="#68AB9F"/>
<path d="M217.34 175.24L217.37 185.26L216.19 184.58L216.17 174.56L217.34 175.24Z" fill="#457971"/>
<path d="M206.8 179.24L206.84 193.43L205.67 192.74L205.63 178.56L206.8 179.24Z" fill="#457971"/>
<path d="M217.97 171.44L219.15 172.12L206.8 179.24L205.63 178.56L217.97 171.44Z" fill="#68AB9F"/>
<path d="M206.8 179.24V193.42L219.14 186.29V172.11L206.8 179.24ZM208.62 180.24L217.34 175.24V185.24L208.62 190.24V180.24Z" fill="#5F9D93"/>
</svg>
