<svg width="172" height="316" viewBox="0 0 172 316" fill="none" xmlns="http://www.w3.org/2000/svg">
<path d="M84.6902 97.27L7.2002 51.76V270.12L84.6902 315.58V97.27Z" fill="#B0882C"/>
<path d="M162.179 51.76L84.6895 97.27V315.58L162.179 270.75V51.76Z" fill="#BE9230"/>
<path d="M171.59 49.25L85.3301 99.37L85.29 112.62L171.55 62.5L171.59 49.25Z" fill="#9B7925"/>
<path d="M85.33 99.3699L0.039978 50.1299L0 63.3799L85.29 112.62L85.33 99.3699Z" fill="#775D17"/>
<path d="M171.59 49.25L86.29 0L0.0400391 50.13L85.3301 99.37L171.59 49.25Z" fill="#A9822A"/>
<path d="M155.05 49.2701L86.3103 9.58008L16.5703 50.1101L85.3203 89.8001L155.05 49.2701Z" fill="#B38A2D"/>
<g style="mix-blend-mode:multiply" opacity="0.5">
<path d="M86.3103 18.8901L86.3203 18.9001V9.59009L86.3103 9.58008L16.5703 50.1101L24.6103 54.7501L86.3103 18.8901Z" fill="#B38A2D"/>
</g>
<g style="mix-blend-mode:multiply">
<path d="M155.05 49.2701L86.3203 9.59009V18.9001L147.02 53.9401L155.05 49.2701Z" fill="#B38A2D"/>
</g>
<path d="M112.13 122.32V116.19C112.13 111.57 108.84 109.7 104.83 112.02C102.717 113.395 100.958 115.251 99.6981 117.436C98.4381 119.62 97.7124 122.072 97.58 124.59V130.53V130.72V136.86V142.75C97.5756 142.813 97.5869 142.876 97.6131 142.934C97.6393 142.992 97.6795 143.042 97.73 143.08C97.7851 143.11 97.847 143.127 97.91 143.127C97.973 143.127 98.035 143.11 98.09 143.08L104.86 139.17L111.63 135.26C111.78 135.165 111.903 135.034 111.99 134.88C112.079 134.728 112.131 134.556 112.14 134.38V128.49V122.35L112.13 122.32Z" fill="#76C1B4"/>
<path d="M111.68 122.68L111.47 122.8L111.68 122.68Z" fill="#76C1B4"/>
<g style="mix-blend-mode:multiply">
<g style="mix-blend-mode:multiply">
<path d="M103.99 132.59L104.36 132.37L104.34 127.41L98.5996 130.73V130.78L103.97 127.68L103.99 132.59Z" fill="#76C1B4"/>
</g>
<g style="mix-blend-mode:multiply">
<path d="M104 138.48L104.37 138.26L104.36 133.56L98.6201 136.87V136.93L103.99 133.82L104 138.48Z" fill="#76C1B4"/>
</g>
<g style="mix-blend-mode:multiply">
<path d="M110.76 128.68L111.13 128.46L111.11 123.5L105.36 126.82V126.88L110.74 123.77L110.76 128.68Z" fill="#76C1B4"/>
</g>
<g style="mix-blend-mode:multiply">
<path d="M104.3 113.52C104.17 113.61 104.05 113.72 103.93 113.81V120.31L104.3 120.1V113.52Z" fill="#76C1B4"/>
</g>
<g style="mix-blend-mode:multiply">
<path d="M103.97 126.45L104.34 126.24L104.33 121.27L98.5801 124.58V124.64L103.96 121.54L103.97 126.45Z" fill="#76C1B4"/>
</g>
<g style="mix-blend-mode:multiply">
<path d="M110.74 122.55L111.11 122.33L111.1 117.36L105.35 120.68V120.73L110.73 117.63L110.74 122.55Z" fill="#76C1B4"/>
</g>
<g style="mix-blend-mode:multiply">
<path d="M110.77 134.57L111.14 134.36L111.13 129.65L105.38 132.97V133.02L110.76 129.92L110.77 134.57Z" fill="#76C1B4"/>
</g>
<g style="mix-blend-mode:multiply">
<path d="M108.88 113.01C109.439 113.384 109.896 113.89 110.212 114.483C110.528 115.076 110.692 115.738 110.69 116.41L111.07 116.19C111.077 115.509 110.915 114.837 110.597 114.235C110.279 113.632 109.816 113.119 109.25 112.74C108.63 112.447 107.947 112.312 107.262 112.345C106.576 112.378 105.91 112.579 105.32 112.93V113.06C105.87 112.777 106.477 112.626 107.094 112.617C107.712 112.608 108.323 112.743 108.88 113.01Z" fill="#76C1B4"/>
</g>
</g>
<path d="M112.13 122.32V116.19C112.13 111.57 108.84 109.7 104.83 112.02C102.717 113.395 100.958 115.251 99.6981 117.436C98.4381 119.62 97.7124 122.072 97.58 124.59V130.53V130.72V136.86V142.75C97.5756 142.813 97.5869 142.876 97.6131 142.934C97.6393 142.992 97.6795 143.042 97.73 143.08C97.7851 143.11 97.847 143.127 97.91 143.127C97.973 143.127 98.035 143.11 98.09 143.08L104.86 139.17L111.63 135.26C111.78 135.165 111.903 135.034 111.99 134.88C112.079 134.728 112.131 134.556 112.14 134.38V128.49V122.35L112.13 122.32ZM97.62 124.81C97.6435 124.86 97.6819 124.902 97.73 124.93C97.6819 124.902 97.6435 124.86 97.62 124.81V124.81ZM100.41 117.88C101.375 116.161 102.71 114.678 104.32 113.54V120.11L98.6 123.41C98.7671 121.431 99.3827 119.516 100.4 117.81L100.41 117.88ZM98.62 124.58L104.36 121.27V126.27L98.62 129.56V124.58ZM98.62 130.72L104.36 127.41V132.41L98.62 135.69V130.72ZM98.62 141.57V136.86L104.36 133.55V138.26L98.62 141.57ZM105.31 112.92C105.899 112.569 106.566 112.368 107.251 112.335C107.937 112.302 108.619 112.437 109.24 112.73C109.806 113.109 110.269 113.622 110.587 114.225C110.904 114.827 111.067 115.499 111.06 116.18L105.33 119.49L105.31 112.92ZM105.31 120.67L111.06 117.35V122.35L105.31 125.67V120.67ZM105.31 126.81L111.06 123.49V128.49L105.38 131.81L105.31 126.81ZM105.31 137.66V132.95L111.06 129.63V134.34L105.31 137.66Z" fill="white"/>
<path d="M132.46 110.5V104.37C132.46 99.75 129.17 97.88 125.16 100.2C123.037 101.577 121.271 103.438 120.008 105.63C118.744 107.822 118.018 110.283 117.89 112.81V118.75V118.94V125.08V130.97C117.885 131.033 117.897 131.096 117.923 131.154C117.949 131.212 117.989 131.262 118.04 131.3C118.095 131.331 118.157 131.347 118.22 131.347C118.283 131.347 118.345 131.331 118.4 131.3L125.17 127.39L131.94 123.48C132.089 123.385 132.213 123.255 132.3 123.1C132.389 122.948 132.44 122.776 132.45 122.6V116.71V110.57L132.46 110.5ZM131.97 116.35C132.036 116.31 132.036 116.31 131.97 116.35V116.35Z" fill="#76C1B4"/>
<path d="M132 110.81L131.79 110.93L132 110.81Z" fill="#76C1B4"/>
<g style="mix-blend-mode:multiply">
<g style="mix-blend-mode:multiply">
<path d="M124.31 120.77L124.68 120.55L124.67 115.59L118.92 118.91V118.96L124.3 115.86L124.31 120.77Z" fill="#76C1B4"/>
</g>
<g style="mix-blend-mode:multiply">
<path d="M124.33 126.66L124.7 126.44L124.68 121.73L118.94 125.05V125.1L124.31 122L124.33 126.66Z" fill="#76C1B4"/>
</g>
<g style="mix-blend-mode:multiply">
<path d="M131.08 116.86L131.45 116.64L131.44 111.68L125.69 115V115.06L131.07 111.95L131.08 116.86Z" fill="#76C1B4"/>
</g>
<g style="mix-blend-mode:multiply">
<path d="M124.62 101.7C124.49 101.79 124.37 101.9 124.25 101.99V108.49L124.62 108.28V101.7Z" fill="#76C1B4"/>
</g>
<g style="mix-blend-mode:multiply">
<path d="M124.29 114.63L124.66 114.42L124.65 109.45L118.91 112.76V112.81L124.28 109.71L124.29 114.63Z" fill="#76C1B4"/>
</g>
<g style="mix-blend-mode:multiply">
<path d="M131.06 110.72L131.43 110.51L131.42 105.54L125.67 108.86V108.91L131.05 105.81L131.06 110.72Z" fill="#76C1B4"/>
</g>
<g style="mix-blend-mode:multiply">
<path d="M131.1 122.75L131.47 122.53L131.46 117.82L125.7 121.14V121.2L131.08 118.09L131.1 122.75Z" fill="#76C1B4"/>
</g>
<g style="mix-blend-mode:multiply">
<path d="M129.201 101.19C129.759 101.564 130.216 102.07 130.532 102.663C130.848 103.256 131.012 103.918 131.011 104.59L131.391 104.37C131.398 103.689 131.235 103.017 130.917 102.415C130.599 101.812 130.137 101.299 129.571 100.92C128.95 100.627 128.267 100.492 127.582 100.525C126.897 100.558 126.23 100.759 125.641 101.11V101.24C126.19 100.957 126.797 100.806 127.415 100.797C128.032 100.788 128.644 100.923 129.201 101.19Z" fill="#76C1B4"/>
</g>
</g>
<path d="M132.46 110.5V104.37C132.46 99.75 129.17 97.88 125.16 100.2C123.037 101.577 121.271 103.438 120.008 105.63C118.744 107.822 118.018 110.283 117.89 112.81V118.75V118.94V125.08V130.97C117.885 131.033 117.897 131.096 117.923 131.154C117.949 131.212 117.989 131.262 118.04 131.3C118.095 131.331 118.157 131.347 118.22 131.347C118.283 131.347 118.345 131.331 118.4 131.3L125.17 127.39L131.94 123.48C132.089 123.385 132.213 123.255 132.3 123.1C132.389 122.948 132.44 122.776 132.45 122.6V116.71V110.57L132.46 110.5ZM117.93 112.97C117.953 113.02 117.991 113.062 118.04 113.09C117.991 113.062 117.953 113.02 117.93 112.97V112.97ZM120.72 106.04C121.684 104.321 123.02 102.838 124.63 101.7V108.27L118.91 111.57C119.09 109.614 119.709 107.724 120.72 106.04V106.04ZM118.91 112.81L124.65 109.5V114.5L118.91 117.81V112.81ZM118.91 118.95L124.65 115.63V120.63L118.91 123.95V118.95ZM118.91 129.8V125.09L124.65 121.78V126.49L118.91 129.8ZM125.62 101.11C126.209 100.759 126.876 100.558 127.561 100.525C128.246 100.492 128.929 100.628 129.55 100.92C130.116 101.299 130.578 101.812 130.896 102.415C131.214 103.017 131.377 103.689 131.37 104.37L125.62 107.69V101.11ZM125.62 108.86L131.37 105.54V110.54L125.68 113.81L125.62 108.86ZM125.62 115L131.37 111.68V116.68L125.62 120V115ZM125.62 125.85V121.14L131.37 117.82V122.53L125.62 125.85Z" fill="white"/>
<path d="M152.779 98.8799V92.7499C152.779 88.1299 149.489 86.2599 145.479 88.5799C143.366 89.9555 141.607 91.8113 140.348 93.9958C139.088 96.1802 138.362 98.6316 138.229 101.15V107.09V107.28V113.42V119.31C138.225 119.373 138.236 119.436 138.263 119.494C138.289 119.552 138.329 119.602 138.379 119.64C138.435 119.67 138.497 119.685 138.559 119.685C138.622 119.685 138.684 119.67 138.739 119.64L145.509 115.73L152.279 111.82C152.429 111.725 152.553 111.594 152.639 111.44C152.729 111.288 152.78 111.116 152.789 110.94V105.05V98.9099L152.779 98.8799ZM152.289 104.73H152.339H152.289Z" fill="#76C1B4"/>
<path d="M152.33 99.24L152.12 99.36L152.33 99.24Z" fill="#76C1B4"/>
<g style="mix-blend-mode:multiply">
<g style="mix-blend-mode:multiply">
<path d="M144.63 109.15L145 108.93L144.99 103.97L139.25 107.29V107.34L144.62 104.24L144.63 109.15Z" fill="#76C1B4"/>
</g>
<g style="mix-blend-mode:multiply">
<path d="M144.65 115.04L145.02 114.82L145.01 110.11L139.26 113.43V113.48L144.64 110.38L144.65 115.04Z" fill="#76C1B4"/>
</g>
<g style="mix-blend-mode:multiply">
<path d="M151.4 105.24L151.77 105.02L151.76 100.06L146.01 103.38V103.44L151.39 100.33L151.4 105.24Z" fill="#76C1B4"/>
</g>
<g style="mix-blend-mode:multiply">
<path d="M144.949 90.0801C144.819 90.1701 144.699 90.2801 144.579 90.3701V96.8701L144.949 96.6601V90.0801Z" fill="#76C1B4"/>
</g>
<g style="mix-blend-mode:multiply">
<path d="M144.62 103.01L144.99 102.8L144.969 97.8301L139.229 101.14V101.19L144.599 98.0901L144.62 103.01Z" fill="#76C1B4"/>
</g>
<g style="mix-blend-mode:multiply">
<path d="M151.389 99.0999L151.759 98.8899L151.739 93.9199L145.989 97.2399V97.2899L151.369 94.1899L151.389 99.0999Z" fill="#76C1B4"/>
</g>
<g style="mix-blend-mode:multiply">
<path d="M151.419 111.13L151.789 110.91L151.779 106.2L146.029 109.52V109.58L151.409 106.47L151.419 111.13Z" fill="#76C1B4"/>
</g>
<g style="mix-blend-mode:multiply">
<path d="M149.53 89.57C150.088 89.9439 150.545 90.4499 150.861 91.043C151.177 91.6361 151.341 92.2981 151.34 92.97L151.72 92.75C151.727 92.0691 151.564 91.3971 151.246 90.7947C150.929 90.1924 150.466 89.6787 149.9 89.3C149.279 89.0075 148.596 88.8719 147.911 88.905C147.226 88.9382 146.559 89.139 145.97 89.49V89.62C146.519 89.3374 147.126 89.1858 147.744 89.1771C148.362 89.1684 148.973 89.3029 149.53 89.57Z" fill="#76C1B4"/>
</g>
</g>
<path d="M152.779 98.8799V92.7499C152.779 88.1299 149.489 86.2599 145.479 88.5799C143.366 89.9555 141.607 91.8113 140.348 93.9958C139.088 96.1802 138.362 98.6316 138.229 101.15V107.09V107.28V113.42V119.31C138.225 119.373 138.236 119.436 138.263 119.494C138.289 119.552 138.329 119.602 138.379 119.64C138.435 119.67 138.497 119.685 138.559 119.685C138.622 119.685 138.684 119.67 138.739 119.64L145.509 115.73L152.279 111.82C152.429 111.725 152.553 111.594 152.639 111.44C152.729 111.288 152.78 111.116 152.789 110.94V105.05V98.9099L152.779 98.8799ZM138.249 101.35C138.273 101.4 138.311 101.442 138.359 101.47C138.311 101.442 138.273 101.4 138.249 101.35V101.35ZM141.039 94.4199C142.004 92.7006 143.34 91.2179 144.949 90.0799V96.6499L139.229 99.9499C139.41 97.9941 140.029 96.1039 141.039 94.4199V94.4199ZM139.229 101.14L144.969 97.8299V102.83L139.229 106.15V101.14ZM139.229 107.28L144.969 103.96V108.96L139.229 112.28V107.28ZM139.229 118.13V113.42L144.969 110.11V114.81L139.229 118.13ZM145.919 89.4799C146.509 89.1289 147.176 88.9281 147.861 88.8949C148.546 88.8618 149.229 88.9974 149.849 89.2899C150.415 89.6686 150.878 90.1823 151.196 90.7846C151.514 91.3869 151.676 92.0589 151.669 92.7399L145.939 96.0499L145.919 89.4799ZM145.919 97.2299L151.669 93.9099V98.9099L145.919 102.23V97.2299ZM145.919 103.37L151.669 100.05V105.05L145.919 108.37V103.37ZM145.919 114.22V109.51L151.669 106.19V110.9L145.919 114.22Z" fill="white"/>
<path d="M112.619 166.04V159.91C112.619 155.29 109.329 153.42 105.319 155.74C103.206 157.115 101.447 158.971 100.187 161.156C98.9274 163.34 98.2017 165.792 98.0693 168.31V174.25V174.44V180.58V186.47C98.0648 186.533 98.0762 186.596 98.1024 186.654C98.1286 186.712 98.1688 186.762 98.2193 186.8C98.2743 186.83 98.3363 186.847 98.3993 186.847C98.4623 186.847 98.5243 186.83 98.5793 186.8L105.349 182.89L112.119 178.98C112.269 178.885 112.393 178.754 112.479 178.6C112.569 178.448 112.62 178.276 112.629 178.1V172.21V166.07L112.619 166.04ZM112.129 171.89H112.179H112.129Z" fill="#76C1B4"/>
<path d="M112.199 166.39L111.989 166.51L112.199 166.39Z" fill="#76C1B4"/>
<g style="mix-blend-mode:multiply">
<g style="mix-blend-mode:multiply">
<path d="M104.499 176.3L104.869 176.09L104.859 171.13L99.1191 174.44V174.49L104.489 171.39L104.499 176.3Z" fill="#76C1B4"/>
</g>
<g style="mix-blend-mode:multiply">
<path d="M104.52 182.19L104.89 181.98L104.88 177.27L99.1299 180.58L99.1399 180.64L104.51 177.54L104.52 182.19Z" fill="#76C1B4"/>
</g>
<g style="mix-blend-mode:multiply">
<path d="M111.27 172.39L111.64 172.18L111.63 167.22L105.88 170.54V170.59L111.26 167.48L111.27 172.39Z" fill="#76C1B4"/>
</g>
<g style="mix-blend-mode:multiply">
<path d="M104.819 157.24C104.689 157.33 104.569 157.44 104.449 157.53V164.03L104.819 163.82V157.24Z" fill="#76C1B4"/>
</g>
<g style="mix-blend-mode:multiply">
<path d="M104.49 170.17L104.86 169.95L104.84 164.98L99.0996 168.3V168.35L104.47 165.25L104.49 170.17Z" fill="#76C1B4"/>
</g>
<g style="mix-blend-mode:multiply">
<path d="M111.259 166.26L111.629 166.05L111.609 161.07L105.859 164.39V164.45L111.239 161.34L111.259 166.26Z" fill="#76C1B4"/>
</g>
<g style="mix-blend-mode:multiply">
<path d="M111.289 178.28L111.659 178.07L111.649 173.36L105.899 176.68V176.73L111.279 173.63L111.289 178.28Z" fill="#76C1B4"/>
</g>
<g style="mix-blend-mode:multiply">
<path d="M109.4 156.73C109.958 157.104 110.416 157.61 110.731 158.203C111.047 158.796 111.212 159.458 111.21 160.13L111.59 159.91C111.597 159.229 111.434 158.557 111.116 157.955C110.799 157.352 110.336 156.839 109.77 156.46C109.149 156.167 108.466 156.032 107.781 156.065C107.096 156.098 106.429 156.299 105.84 156.65V156.81C106.387 156.523 106.993 156.366 107.61 156.352C108.228 156.338 108.841 156.467 109.4 156.73Z" fill="#76C1B4"/>
</g>
</g>
<path d="M112.619 166.04V159.91C112.619 155.29 109.329 153.42 105.319 155.74C103.206 157.115 101.447 158.971 100.187 161.156C98.9274 163.34 98.2017 165.792 98.0693 168.31V174.25V174.44V180.58V186.47C98.0648 186.533 98.0762 186.596 98.1024 186.654C98.1286 186.712 98.1688 186.762 98.2193 186.8C98.2743 186.83 98.3363 186.847 98.3993 186.847C98.4623 186.847 98.5243 186.83 98.5793 186.8L105.349 182.89L112.119 178.98C112.269 178.885 112.393 178.754 112.479 178.6C112.569 178.448 112.62 178.276 112.629 178.1V172.21V166.07L112.619 166.04ZM98.1193 168.51C98.1427 168.56 98.1811 168.602 98.2293 168.63C98.1811 168.602 98.1427 168.56 98.1193 168.51V168.51ZM100.909 161.58C101.874 159.861 103.21 158.378 104.819 157.24V163.81L99.0993 167.11C99.2783 165.151 99.897 163.257 100.909 161.57V161.58ZM99.0993 168.3L104.839 164.99V169.99L99.0993 173.3V168.3ZM99.0993 174.44L104.839 171.12V176.12L99.0993 179.44V174.44ZM99.0993 185.29V180.58L104.839 177.26V181.97L99.0993 185.29ZM105.789 156.64C106.379 156.289 107.045 156.088 107.731 156.055C108.416 156.022 109.099 156.157 109.719 156.45C110.302 156.82 110.781 157.331 111.113 157.936C111.445 158.541 111.619 159.22 111.619 159.91L105.889 163.22L105.789 156.64ZM105.789 164.39L111.539 161.07V166.07L105.789 169.39V164.39ZM105.789 170.53L111.539 167.21V172.21L105.789 175.53V170.53ZM105.789 181.38V176.67L111.539 173.35V178.06L105.789 181.38Z" fill="white"/>
<path d="M132.97 154.21V148.08C132.97 143.46 129.69 141.59 125.67 143.91C123.556 145.286 121.798 147.141 120.538 149.326C119.278 151.51 118.552 153.962 118.42 156.48V162.42V162.61V168.75V174.64C118.415 174.703 118.427 174.766 118.453 174.824C118.479 174.882 118.519 174.932 118.57 174.97C118.625 175 118.687 175.015 118.75 175.015C118.813 175.015 118.875 175 118.93 174.97L125.7 171.06L132.47 167.15C132.619 167.055 132.743 166.925 132.83 166.77C132.919 166.618 132.971 166.446 132.98 166.27V160.38V154.24L132.97 154.21ZM132.48 160.06H132.53H132.48Z" fill="#76C1B4"/>
<path d="M132.52 154.57L132.31 154.69L132.52 154.57Z" fill="#76C1B4"/>
<g style="mix-blend-mode:multiply">
<g style="mix-blend-mode:multiply">
<path d="M124.829 164.48L125.199 164.26L125.179 159.3L119.439 162.62V162.67L124.809 159.57L124.829 164.48Z" fill="#76C1B4"/>
</g>
<g style="mix-blend-mode:multiply">
<path d="M124.84 170.37L125.21 170.16L125.2 165.45L119.46 168.76V168.81L124.83 165.71L124.84 170.37Z" fill="#76C1B4"/>
</g>
<g style="mix-blend-mode:multiply">
<path d="M131.6 160.57L131.97 160.35L131.95 155.39L126.2 158.71V158.77L131.58 155.66L131.6 160.57Z" fill="#76C1B4"/>
</g>
<g style="mix-blend-mode:multiply">
<path d="M125.14 145.41C125.01 145.5 124.89 145.61 124.77 145.7V152.2L125.14 151.99V145.41Z" fill="#76C1B4"/>
</g>
<g style="mix-blend-mode:multiply">
<path d="M124.81 158.35L125.18 158.13L125.16 153.16L119.42 156.47V156.53L124.79 153.43L124.81 158.35Z" fill="#76C1B4"/>
</g>
<g style="mix-blend-mode:multiply">
<path d="M131.579 154.44L131.949 154.22L131.939 149.25L126.189 152.57V152.62L131.569 149.52L131.579 154.44Z" fill="#76C1B4"/>
</g>
<g style="mix-blend-mode:multiply">
<path d="M131.61 166.46L131.98 166.25L131.97 161.54L126.22 164.86V164.91L131.6 161.81L131.61 166.46Z" fill="#76C1B4"/>
</g>
<g style="mix-blend-mode:multiply">
<path d="M129.72 144.9C130.279 145.274 130.736 145.78 131.052 146.373C131.367 146.966 131.532 147.628 131.53 148.3L131.91 148.08C131.917 147.399 131.754 146.727 131.437 146.125C131.119 145.522 130.656 145.009 130.09 144.63C129.47 144.337 128.787 144.202 128.102 144.235C127.416 144.268 126.75 144.469 126.16 144.82V144.95C126.709 144.667 127.317 144.516 127.934 144.507C128.552 144.498 129.163 144.633 129.72 144.9Z" fill="#76C1B4"/>
</g>
</g>
<path d="M132.97 154.21V148.08C132.97 143.46 129.69 141.59 125.67 143.91C123.556 145.286 121.798 147.141 120.538 149.326C119.278 151.51 118.552 153.962 118.42 156.48V162.42V162.61V168.75V174.64C118.415 174.703 118.427 174.766 118.453 174.824C118.479 174.882 118.519 174.932 118.57 174.97C118.625 175 118.687 175.015 118.75 175.015C118.813 175.015 118.875 175 118.93 174.97L125.7 171.06L132.47 167.15C132.619 167.055 132.743 166.925 132.83 166.77C132.919 166.618 132.971 166.446 132.98 166.27V160.38V154.24L132.97 154.21ZM118.44 156.68C118.463 156.73 118.502 156.772 118.55 156.8C118.502 156.772 118.463 156.73 118.44 156.68V156.68ZM121.23 149.75C122.195 148.031 123.53 146.548 125.14 145.41V151.98L119.42 155.28C119.603 153.323 120.225 151.433 121.24 149.75H121.23ZM119.42 156.47L125.16 153.16V158.16L119.42 161.48V156.47ZM119.42 162.61L125.16 159.29V164.29L119.42 167.61V162.61ZM119.42 173.46V168.81L125.16 165.5V170.21L119.42 173.46ZM126.16 144.81C126.749 144.459 127.416 144.258 128.101 144.225C128.786 144.192 129.469 144.327 130.09 144.62C130.656 144.999 131.119 145.512 131.436 146.115C131.754 146.717 131.917 147.389 131.91 148.07L126.18 151.38L126.16 144.81ZM126.16 152.56L131.91 149.24V154.24L126.16 157.56V152.56ZM126.16 158.7L131.91 155.38V160.38L126.16 163.7V158.7ZM126.16 169.55V164.81L131.91 161.49V166.2L126.16 169.55Z" fill="white"/>
<path d="M153.29 142.59V136.46C153.29 131.84 150 129.97 145.99 132.29C143.877 133.665 142.118 135.521 140.858 137.706C139.598 139.89 138.873 142.342 138.74 144.86V150.8V150.99V157.13V163.02C138.736 163.083 138.747 163.146 138.773 163.204C138.8 163.262 138.84 163.312 138.89 163.35C138.946 163.38 139.007 163.395 139.07 163.395C139.133 163.395 139.195 163.38 139.25 163.35L146.02 159.44L152.79 155.53C152.94 155.435 153.064 155.304 153.15 155.15C153.24 154.998 153.291 154.826 153.3 154.65V148.76V142.62L153.29 142.59Z" fill="#76C1B4"/>
<path d="M152.84 142.95L152.63 143.07L152.84 142.95Z" fill="#76C1B4"/>
<g style="mix-blend-mode:multiply">
<g style="mix-blend-mode:multiply">
<path d="M145.15 152.86L145.52 152.65L145.51 147.68L139.76 151V151.05L145.13 147.95L145.15 152.86Z" fill="#76C1B4"/>
</g>
<g style="mix-blend-mode:multiply">
<path d="M145.16 158.75L145.54 158.54L145.52 153.83L139.78 157.14V157.19L145.15 154.09L145.16 158.75Z" fill="#76C1B4"/>
</g>
<g style="mix-blend-mode:multiply">
<path d="M151.92 148.95L152.29 148.74L152.28 143.77L146.53 147.09V147.15L151.91 144.04L151.92 148.95Z" fill="#76C1B4"/>
</g>
<g style="mix-blend-mode:multiply">
<path d="M145.47 133.81C145.34 133.9 145.22 134.01 145.1 134.1V140.6L145.47 140.39V133.81Z" fill="#76C1B4"/>
</g>
<g style="mix-blend-mode:multiply">
<path d="M145.13 146.73L145.5 146.51L145.49 141.54L139.75 144.85V144.91L145.12 141.81L145.13 146.73Z" fill="#76C1B4"/>
</g>
<g style="mix-blend-mode:multiply">
<path d="M151.9 142.82L152.27 142.6L152.26 137.63L146.51 140.95V141L151.89 137.9L151.9 142.82Z" fill="#76C1B4"/>
</g>
<g style="mix-blend-mode:multiply">
<path d="M151.94 154.84L152.31 154.63L152.29 149.92L146.54 153.24V153.29L151.92 150.19L151.94 154.84Z" fill="#76C1B4"/>
</g>
<g style="mix-blend-mode:multiply">
<path d="M150.04 133.28C150.599 133.654 151.056 134.16 151.372 134.753C151.688 135.346 151.852 136.008 151.85 136.68L152.23 136.46C152.237 135.779 152.075 135.107 151.757 134.505C151.439 133.902 150.976 133.389 150.41 133.01C149.79 132.718 149.107 132.582 148.422 132.615C147.737 132.648 147.07 132.849 146.48 133.2V133.33C147.03 133.047 147.637 132.896 148.255 132.887C148.872 132.878 149.484 133.013 150.04 133.28Z" fill="#76C1B4"/>
</g>
</g>
<path d="M153.29 142.59V136.46C153.29 131.84 150 129.97 145.99 132.29C143.877 133.665 142.118 135.521 140.858 137.706C139.598 139.89 138.873 142.342 138.74 144.86V150.8V150.99V157.13V163.02C138.736 163.083 138.747 163.146 138.773 163.204C138.8 163.262 138.84 163.312 138.89 163.35C138.946 163.38 139.007 163.395 139.07 163.395C139.133 163.395 139.195 163.38 139.25 163.35L146.02 159.44L152.79 155.53C152.94 155.435 153.064 155.304 153.15 155.15C153.24 154.998 153.291 154.826 153.3 154.65V148.76V142.62L153.29 142.59ZM138.76 145.06C138.784 145.11 138.822 145.152 138.87 145.18C138.826 145.151 138.791 145.109 138.77 145.06H138.76ZM141.55 138.13C142.515 136.411 143.85 134.928 145.46 133.79V140.36L139.74 143.66C139.924 141.703 140.546 139.813 141.56 138.13H141.55ZM139.75 144.81L145.49 141.5V146.5L139.76 149.81L139.75 144.81ZM139.75 150.95L145.49 147.64V152.64L139.75 155.96V150.95ZM139.75 161.8V157.09L145.52 153.81V158.52L139.75 161.8ZM146.44 133.15C147.03 132.799 147.696 132.598 148.381 132.565C149.067 132.532 149.75 132.667 150.37 132.96C150.936 133.339 151.399 133.852 151.717 134.455C152.035 135.057 152.197 135.729 152.19 136.41L146.5 139.81L146.44 133.15ZM146.44 140.9L152.19 137.58V142.58L146.44 145.9V140.9ZM146.44 147.04L152.19 143.72V148.72L146.44 152.04V147.04ZM146.44 157.89V153.18L152.19 149.86V154.57L146.44 157.89Z" fill="white"/>
<path d="M113.16 209.75V203.62C113.16 199 109.87 197.13 105.86 199.45C103.748 200.827 101.992 202.683 100.734 204.867C99.4756 207.052 98.7513 209.503 98.6201 212.02V217.96V218.15V224.29V230.18C98.6156 230.243 98.627 230.306 98.6532 230.364C98.6794 230.422 98.7196 230.472 98.7701 230.51C98.8252 230.541 98.8871 230.557 98.9501 230.557C99.0131 230.557 99.0751 230.541 99.1301 230.51L105.9 226.6L112.67 222.69C112.82 222.595 112.943 222.465 113.03 222.31C113.119 222.158 113.171 221.986 113.18 221.81V215.92V209.78L113.16 209.75ZM112.67 215.6C112.743 215.553 112.747 215.55 112.68 215.59L112.67 215.6Z" fill="#76C1B4"/>
<path d="M112.71 210.11L112.5 210.23L112.71 210.11Z" fill="#76C1B4"/>
<g style="mix-blend-mode:multiply">
<g style="mix-blend-mode:multiply">
<path d="M105.02 220.01L105.39 219.8L105.38 214.84L99.6299 218.15V218.21L105 215.11L105.02 220.01Z" fill="#76C1B4"/>
</g>
<g style="mix-blend-mode:multiply">
<path d="M105.04 225.91L105.41 225.69L105.39 220.98L99.6504 224.3V224.35L105.02 221.25L105.04 225.91Z" fill="#76C1B4"/>
</g>
<g style="mix-blend-mode:multiply">
<path d="M111.79 216.1L112.16 215.89L112.15 210.93L106.4 214.25V214.3L111.78 211.2L111.79 216.1Z" fill="#76C1B4"/>
</g>
<g style="mix-blend-mode:multiply">
<path d="M105.34 200.95C105.21 201.04 105.09 201.15 104.97 201.24V207.74L105.34 207.53V200.95Z" fill="#76C1B4"/>
</g>
<g style="mix-blend-mode:multiply">
<path d="M105 213.88L105.37 213.67L105.36 208.69L99.6201 212.01V212.06L104.99 208.96L105 213.88Z" fill="#76C1B4"/>
</g>
<g style="mix-blend-mode:multiply">
<path d="M111.77 209.97L112.14 209.76L112.13 204.79L106.38 208.11V208.16L111.76 205.05L111.77 209.97Z" fill="#76C1B4"/>
</g>
<g style="mix-blend-mode:multiply">
<path d="M111.81 222L112.18 221.78L112.16 217.07L106.41 220.39V220.45L111.79 217.34L111.81 222Z" fill="#76C1B4"/>
</g>
<g style="mix-blend-mode:multiply">
<path d="M109.91 200.44C110.468 200.814 110.925 201.32 111.241 201.913C111.557 202.506 111.721 203.168 111.72 203.84L112.1 203.62C112.107 202.939 111.944 202.267 111.626 201.665C111.308 201.062 110.846 200.549 110.28 200.17C109.659 199.877 108.976 199.742 108.291 199.775C107.606 199.808 106.939 200.009 106.35 200.36V200.49C106.899 200.207 107.506 200.056 108.124 200.047C108.741 200.038 109.353 200.173 109.91 200.44Z" fill="#76C1B4"/>
</g>
</g>
<path d="M113.16 209.75V203.62C113.16 199 109.87 197.13 105.86 199.45C103.748 200.827 101.992 202.683 100.734 204.867C99.4756 207.052 98.7513 209.503 98.6201 212.02V217.96V218.15V224.29V230.18C98.6156 230.243 98.627 230.306 98.6532 230.364C98.6794 230.422 98.7196 230.472 98.7701 230.51C98.8252 230.541 98.8871 230.557 98.9501 230.557C99.0131 230.557 99.0751 230.541 99.1301 230.51L105.9 226.6L112.67 222.69C112.82 222.595 112.943 222.465 113.03 222.31C113.119 222.158 113.171 221.986 113.18 221.81V215.92V209.78L113.16 209.75ZM98.6201 212.22C98.6435 212.27 98.6819 212.312 98.7301 212.34C98.6819 212.312 98.6435 212.27 98.6201 212.22ZM101.41 205.29C102.375 203.571 103.711 202.088 105.32 200.95V207.52L99.6201 210.81C99.802 208.858 100.421 206.971 101.43 205.29H101.41ZM99.6201 212.01L105.36 208.7V213.7L99.6201 216.98V212.01ZM99.6201 218.15L105.36 214.84V219.84L99.6201 223.12V218.15ZM99.6201 229V224.29L105.36 220.97V225.68L99.6201 229ZM106.31 200.35C106.9 199.999 107.566 199.798 108.251 199.765C108.937 199.732 109.62 199.868 110.24 200.16C110.806 200.539 111.269 201.052 111.587 201.655C111.904 202.257 112.067 202.929 112.06 203.61L106.33 206.92L106.31 200.35ZM106.31 208.1L112.06 204.78V209.78L106.31 213.1V208.1ZM106.31 214.24L112.06 210.92V215.92L106.31 219.24V214.24ZM106.31 225.09V220.38L112.06 217.06V221.81L106.31 225.09Z" fill="white"/>
<path d="M133.489 197.93V191.8C133.489 187.18 130.199 185.31 126.189 187.63C124.076 189.006 122.317 190.861 121.057 193.046C119.798 195.23 119.072 197.682 118.939 200.2V206.14V206.33V212.47V218.36C118.935 218.423 118.946 218.486 118.973 218.544C118.999 218.602 119.039 218.652 119.089 218.69C119.144 218.721 119.206 218.737 119.269 218.737C119.332 218.737 119.394 218.721 119.449 218.69L126.219 214.78L133.019 210.81C133.169 210.715 133.293 210.584 133.379 210.43C133.469 210.278 133.52 210.106 133.529 209.93V204.04V197.9L133.489 197.93ZM132.999 203.78H133.049H132.999Z" fill="#76C1B4"/>
<path d="M133.04 198.28L132.83 198.4L133.04 198.28Z" fill="#76C1B4"/>
<g style="mix-blend-mode:multiply">
<g style="mix-blend-mode:multiply">
<path d="M125.339 208.19L125.709 207.98L125.699 203.02L119.959 206.33V206.38L125.329 203.28L125.339 208.19Z" fill="#76C1B4"/>
</g>
<g style="mix-blend-mode:multiply">
<path d="M125.359 214.08L125.729 213.87L125.719 209.16L119.979 212.47V212.53L125.349 209.43L125.359 214.08Z" fill="#76C1B4"/>
</g>
<g style="mix-blend-mode:multiply">
<path d="M132.11 204.28L132.48 204.07L132.47 199.11L126.72 202.43V202.48L132.1 199.38L132.11 204.28Z" fill="#76C1B4"/>
</g>
<g style="mix-blend-mode:multiply">
<path d="M125.619 189.13C125.489 189.22 125.369 189.33 125.249 189.42V195.92L125.619 195.71V189.13Z" fill="#76C1B4"/>
</g>
<g style="mix-blend-mode:multiply">
<path d="M125.319 202.06L125.699 201.84L125.679 196.87L119.939 200.19V200.24L125.309 197.14L125.319 202.06Z" fill="#76C1B4"/>
</g>
<g style="mix-blend-mode:multiply">
<path d="M132.099 198.15L132.469 197.94L132.449 192.96L126.699 196.28V196.34L132.079 193.23L132.099 198.15Z" fill="#76C1B4"/>
</g>
<g style="mix-blend-mode:multiply">
<path d="M132.129 210.17L132.499 209.96L132.489 205.25L126.739 208.57V208.63L132.119 205.52L132.129 210.17Z" fill="#76C1B4"/>
</g>
<g style="mix-blend-mode:multiply">
<path d="M130.24 188.62C130.798 188.994 131.255 189.5 131.571 190.093C131.887 190.686 132.051 191.348 132.05 192.02L132.43 191.8C132.437 191.119 132.274 190.447 131.956 189.845C131.638 189.242 131.176 188.728 130.61 188.35C129.989 188.057 129.306 187.922 128.621 187.955C127.936 187.988 127.269 188.189 126.68 188.54V188.67C127.229 188.387 127.836 188.236 128.454 188.227C129.071 188.218 129.683 188.353 130.24 188.62Z" fill="#76C1B4"/>
</g>
</g>
<path d="M133.489 197.93V191.8C133.489 187.18 130.199 185.31 126.189 187.63C124.076 189.006 122.317 190.861 121.057 193.046C119.798 195.23 119.072 197.682 118.939 200.2V206.14V206.33V212.47V218.36C118.935 218.423 118.946 218.486 118.973 218.544C118.999 218.602 119.039 218.652 119.089 218.69C119.144 218.721 119.206 218.737 119.269 218.737C119.332 218.737 119.394 218.721 119.449 218.69L126.219 214.78L133.019 210.81C133.169 210.715 133.293 210.584 133.379 210.43C133.469 210.278 133.52 210.106 133.529 209.93V204.04V197.9L133.489 197.93ZM118.959 200.4C118.983 200.45 119.021 200.492 119.069 200.52C119.021 200.492 118.983 200.45 118.959 200.4V200.4ZM121.749 193.47C122.714 191.751 124.05 190.268 125.659 189.13V195.7L119.939 199C120.118 197.041 120.737 195.147 121.749 193.46V193.47ZM119.939 200.19L125.679 196.88V201.88L119.939 205.19V200.19ZM119.939 206.33L125.679 203.02V208.02L119.939 211.34V206.33ZM119.939 217.18V212.47L125.679 209.16V213.87L119.939 217.18ZM126.629 188.53C127.219 188.179 127.885 187.978 128.571 187.945C129.256 187.912 129.939 188.047 130.559 188.34C131.125 188.719 131.588 189.232 131.906 189.835C132.224 190.437 132.386 191.109 132.379 191.79L126.649 195.1L126.629 188.53ZM126.629 196.28L132.379 192.96V197.96L126.629 201.28V196.28ZM126.629 202.42L132.379 199.1V204.1L126.629 207.42V202.42ZM126.629 213.27V208.56L132.379 205.24V209.95L126.629 213.27Z" fill="white"/>
<path d="M153.81 186.31V180.18C153.81 175.56 150.53 173.69 146.51 176.01C144.396 177.385 142.638 179.241 141.378 181.426C140.118 183.61 139.392 186.062 139.26 188.58V194.52V194.71V200.85V206.74C139.255 206.803 139.267 206.866 139.293 206.924C139.319 206.981 139.359 207.032 139.41 207.07C139.465 207.1 139.527 207.117 139.59 207.117C139.653 207.117 139.715 207.1 139.77 207.07L146.54 203.16L153.31 199.25C153.459 199.155 153.583 199.024 153.67 198.87C153.759 198.718 153.811 198.546 153.82 198.37V192.48V186.34L153.81 186.31ZM153.32 192.16H153.37H153.32Z" fill="#76C1B4"/>
<path d="M153.359 186.66L153.149 186.78L153.359 186.66Z" fill="#76C1B4"/>
<g style="mix-blend-mode:multiply">
<g style="mix-blend-mode:multiply">
<path d="M145.659 196.57L146.039 196.36L146.019 191.4L140.279 194.71V194.77L145.649 191.66L145.659 196.57Z" fill="#76C1B4"/>
</g>
<g style="mix-blend-mode:multiply">
<path d="M145.68 202.46L146.05 202.25L146.04 197.54L140.3 200.85V200.91L145.67 197.81L145.68 202.46Z" fill="#76C1B4"/>
</g>
<g style="mix-blend-mode:multiply">
<path d="M152.44 192.66L152.81 192.45L152.79 187.49L147.04 190.81V190.86L152.42 187.76L152.44 192.66Z" fill="#76C1B4"/>
</g>
<g style="mix-blend-mode:multiply">
<path d="M145.979 177.51C145.849 177.6 145.729 177.71 145.609 177.8V184.3L145.979 184.09V177.51Z" fill="#76C1B4"/>
</g>
<g style="mix-blend-mode:multiply">
<path d="M145.65 190.44L146.02 190.22L146 185.25L140.26 188.57V188.62L145.63 185.52L145.65 190.44Z" fill="#76C1B4"/>
</g>
<g style="mix-blend-mode:multiply">
<path d="M152.419 186.53L152.789 186.31L152.77 181.34L147.02 184.66V184.72L152.4 181.61L152.419 186.53Z" fill="#76C1B4"/>
</g>
<g style="mix-blend-mode:multiply">
<path d="M152.45 198.55L152.82 198.34L152.81 193.63L147.06 196.95V197.01L152.44 193.9L152.45 198.55Z" fill="#76C1B4"/>
</g>
<g style="mix-blend-mode:multiply">
<path d="M150.56 177C151.118 177.374 151.576 177.88 151.891 178.473C152.207 179.066 152.372 179.728 152.37 180.4L152.75 180.18C152.757 179.499 152.594 178.827 152.277 178.225C151.959 177.622 151.496 177.109 150.93 176.73C150.309 176.437 149.627 176.302 148.941 176.335C148.256 176.368 147.589 176.569 147 176.92V177.05C147.549 176.767 148.156 176.616 148.774 176.607C149.392 176.598 150.003 176.733 150.56 177Z" fill="#76C1B4"/>
</g>
</g>
<path d="M153.81 186.31V180.18C153.81 175.56 150.53 173.69 146.51 176.01C144.396 177.385 142.638 179.241 141.378 181.426C140.118 183.61 139.392 186.062 139.26 188.58V194.52V194.71V200.85V206.74C139.255 206.803 139.267 206.866 139.293 206.924C139.319 206.981 139.359 207.032 139.41 207.07C139.465 207.1 139.527 207.117 139.59 207.117C139.653 207.117 139.715 207.1 139.77 207.07L146.54 203.16L153.31 199.25C153.459 199.155 153.583 199.024 153.67 198.87C153.759 198.718 153.811 198.546 153.82 198.37V192.48V186.34L153.81 186.31ZM139.28 188.81C139.303 188.86 139.342 188.902 139.39 188.93C139.342 188.902 139.303 188.86 139.28 188.81V188.81ZM142.07 181.88C143.035 180.161 144.37 178.678 145.98 177.54V184.11L140.26 187.41C140.43 185.43 141.049 183.515 142.07 181.81V181.88ZM140.26 188.6L146 185.29V190.29L140.26 193.6V188.6ZM140.26 194.74L146 191.42V196.42L140.26 199.73V194.74ZM140.26 205.59V200.81L146 197.5V202.21L140.26 205.59ZM146.95 176.94C147.539 176.589 148.206 176.388 148.891 176.355C149.576 176.322 150.259 176.457 150.88 176.75C151.446 177.128 151.909 177.642 152.226 178.245C152.544 178.847 152.707 179.519 152.7 180.2L146.97 183.51L146.95 176.94ZM146.95 184.69L152.7 181.37V186.37L146.95 189.69V184.69ZM146.95 190.83L152.7 187.51V192.51L147.06 195.81L146.95 190.83ZM146.95 201.68V196.97L152.7 193.65V198.36L146.95 201.68Z" fill="white"/>
<path d="M57.2002 134.5C57.2094 134.676 57.2608 134.848 57.3502 135C57.4368 135.154 57.5606 135.285 57.7102 135.38L64.4802 139.29L71.2502 143.2C71.3055 143.23 71.3674 143.245 71.4302 143.245C71.493 143.245 71.5548 143.23 71.6102 143.2C71.6607 143.162 71.7009 143.112 71.7271 143.054C71.7532 142.996 71.7647 142.933 71.7602 142.87V136.98V130.84V130.65V124.71C71.6278 122.192 70.9021 119.74 69.6422 117.556C68.3822 115.371 66.6237 113.516 64.5102 112.14C60.5102 109.82 57.2202 111.69 57.2102 116.31V122.44V128.58L57.2002 134.5ZM57.7202 128.31H57.6702H57.7202Z" fill="#76C1B4"/>
<path d="M57.6895 122.81L57.8995 122.93L57.6895 122.81Z" fill="#76C1B4"/>
<g style="mix-blend-mode:multiply">
<g style="mix-blend-mode:multiply">
<path d="M70.7698 130.93V130.87L65.0198 127.56L65.0098 132.52L65.3798 132.74L65.3898 127.83L70.7698 130.93Z" fill="#76C1B4"/>
</g>
<g style="mix-blend-mode:multiply">
<path d="M70.7502 137.07V137.02L65.0103 133.7L64.9902 138.41L65.3702 138.63L65.3802 133.97L70.7502 137.07Z" fill="#76C1B4"/>
</g>
<g style="mix-blend-mode:multiply">
<path d="M64.0002 127.02V126.97L58.2502 123.65L58.2402 128.61L58.6102 128.83L58.6202 123.92L64.0002 127.02Z" fill="#76C1B4"/>
</g>
<g style="mix-blend-mode:multiply">
<path d="M65.0596 113.67V120.24L65.4296 120.45V113.95C65.3096 113.87 65.1896 113.76 65.0596 113.67Z" fill="#76C1B4"/>
</g>
<g style="mix-blend-mode:multiply">
<path d="M70.7793 124.78V124.73L65.0393 121.42L65.0293 126.39L65.3994 126.6L65.4093 121.68L70.7793 124.78Z" fill="#76C1B4"/>
</g>
<g style="mix-blend-mode:multiply">
<path d="M64.0198 120.88V120.83L58.2698 117.51L58.2598 122.48L58.6298 122.69L58.6398 117.77L64.0198 120.88Z" fill="#76C1B4"/>
</g>
<g style="mix-blend-mode:multiply">
<path d="M63.9897 133.17V133.12L58.2397 129.79L58.2197 134.5L58.5897 134.72L58.6097 130.06L63.9897 133.17Z" fill="#76C1B4"/>
</g>
<g style="mix-blend-mode:multiply">
<path d="M60.49 113.16C61.0431 112.885 61.6524 112.742 62.2701 112.742C62.8877 112.742 63.4969 112.885 64.05 113.16V113.03C63.4606 112.679 62.794 112.478 62.1087 112.445C61.4235 112.412 60.7406 112.548 60.12 112.84C59.554 113.219 59.0912 113.732 58.7735 114.335C58.4557 114.937 58.293 115.609 58.3 116.29L58.68 116.51C58.6866 115.847 58.8549 115.195 59.1703 114.611C59.4857 114.027 59.9387 113.529 60.49 113.16V113.16Z" fill="#76C1B4"/>
</g>
</g>
<path d="M57.2002 134.5C57.2094 134.676 57.2608 134.848 57.3502 135C57.4368 135.154 57.5606 135.285 57.7102 135.38L64.4802 139.29L71.2502 143.2C71.3055 143.23 71.3674 143.245 71.4302 143.245C71.493 143.245 71.5548 143.23 71.6102 143.2C71.6607 143.162 71.7009 143.112 71.7271 143.054C71.7532 142.996 71.7647 142.933 71.7602 142.87V136.98V130.84V124.71C71.6278 122.192 70.9021 119.74 69.6422 117.556C68.3822 115.371 66.6237 113.516 64.5102 112.14C60.5102 109.82 57.2202 111.69 57.2102 116.31V122.44V128.58L57.2002 134.5ZM71.7602 124.94C71.7367 124.99 71.6983 125.032 71.6502 125.06C71.6983 125.032 71.7367 124.99 71.7602 124.94V124.94ZM65.0602 113.67C66.6699 114.808 68.0056 116.291 68.9702 118.01C69.9754 119.699 70.5873 121.592 70.7602 123.55L65.0402 120.25L65.0602 113.67ZM65.0602 121.42L70.8002 124.73V129.73L65.0602 126.42V121.42ZM65.0602 127.56L70.8002 130.87V135.87L65.0602 132.55V127.56ZM65.0602 133.7L70.8002 137.02V141.73L65.0602 138.42V133.7ZM60.1702 112.89C60.7907 112.597 61.4736 112.462 62.1589 112.495C62.8441 112.528 63.5107 112.729 64.1002 113.08V119.65L58.3702 116.34C58.3554 115.665 58.5074 114.997 58.8127 114.396C59.118 113.794 59.5671 113.277 60.1202 112.89H60.1702ZM58.3102 122.48V117.48L64.0202 120.81V125.81L58.2702 122.49L58.3102 122.48ZM58.3102 123.65L64.0602 126.97V131.97L58.3102 128.65V123.65ZM58.3102 129.79L64.0602 133.11V137.81L58.3102 134.49V129.79Z" fill="white"/>
<path d="M36.8799 122.68C36.889 122.856 36.9405 123.028 37.0298 123.18C37.1165 123.334 37.2403 123.465 37.3899 123.56L44.1599 127.47L50.9299 131.38C50.9849 131.411 51.0469 131.427 51.1099 131.427C51.1729 131.427 51.2348 131.411 51.2899 131.38C51.3404 131.342 51.3805 131.292 51.4067 131.234C51.4329 131.176 51.4443 131.113 51.4399 131.05V125.16V119.02V118.81V112.87C51.3075 110.352 50.5818 107.9 49.3218 105.716C48.0619 103.531 46.3034 101.675 44.1899 100.3C40.1899 97.9799 36.8999 99.8499 36.8899 104.47V110.6V116.74L36.8799 122.68ZM37.3999 116.49C37.3332 116.45 37.3332 116.45 37.3999 116.49V116.49Z" fill="#76C1B4"/>
<path d="M37.3594 111L37.5694 111.12L37.3594 111Z" fill="#76C1B4"/>
<g style="mix-blend-mode:multiply">
<g style="mix-blend-mode:multiply">
<path d="M50.4395 119.11V119.05L44.6995 115.74L44.6895 120.7L45.0594 120.91L45.0695 116L50.4395 119.11Z" fill="#76C1B4"/>
</g>
<g style="mix-blend-mode:multiply">
<path d="M50.4189 125.25L50.429 125.2L44.679 121.88L44.6689 126.59L45.0389 126.8L45.049 122.15L50.4189 125.25Z" fill="#76C1B4"/>
</g>
<g style="mix-blend-mode:multiply">
<path d="M43.679 115.2V115.15L37.929 111.83L37.9189 116.79L38.2889 117L38.299 112.1L43.679 115.2Z" fill="#76C1B4"/>
</g>
<g style="mix-blend-mode:multiply">
<path d="M44.7393 101.81V108.38L45.1093 108.59V102.09C44.9893 102.04 44.8693 101.93 44.7393 101.81Z" fill="#76C1B4"/>
</g>
<g style="mix-blend-mode:multiply">
<path d="M50.459 112.96V112.91L44.7189 109.59L44.709 114.56L45.079 114.78L45.0889 109.86L50.459 112.96Z" fill="#76C1B4"/>
</g>
<g style="mix-blend-mode:multiply">
<path d="M43.6997 109.06V109L37.9497 105.68L37.9297 110.66L38.2997 110.87L38.3197 105.95L43.6997 109.06Z" fill="#76C1B4"/>
</g>
<g style="mix-blend-mode:multiply">
<path d="M43.6594 121.35V121.29L37.9094 117.97L37.8994 122.68L38.2694 122.89L38.2794 118.24L43.6594 121.35Z" fill="#76C1B4"/>
</g>
<g style="mix-blend-mode:multiply">
<path d="M40.159 101.34C40.7121 101.065 41.3214 100.922 41.939 100.922C42.5566 100.922 43.1659 101.065 43.719 101.34V101.21C43.1295 100.859 42.4629 100.658 41.7777 100.625C41.0924 100.592 40.4095 100.728 39.789 101.02C39.223 101.399 38.7602 101.912 38.4424 102.515C38.1247 103.117 37.9619 103.789 37.969 104.47V104.47L38.349 104.69C38.3555 104.027 38.5238 103.375 38.8392 102.791C39.1546 102.207 39.6076 101.709 40.159 101.34V101.34Z" fill="#76C1B4"/>
</g>
</g>
<path d="M36.8799 122.68C36.889 122.856 36.9405 123.028 37.0298 123.18C37.1165 123.334 37.2403 123.465 37.3899 123.56L44.1599 127.47L50.9299 131.38C50.9849 131.411 51.0469 131.427 51.1099 131.427C51.1729 131.427 51.2348 131.411 51.2899 131.38C51.3404 131.342 51.3805 131.292 51.4067 131.234C51.4329 131.176 51.4443 131.113 51.4399 131.05V125.16V119.02V112.89C51.3075 110.372 50.5818 107.92 49.3218 105.736C48.0619 103.551 46.3034 101.696 44.1899 100.32C40.1899 97.9999 36.8999 99.8699 36.8899 104.49V110.62V116.76L36.8799 122.68ZM51.4399 113.12C51.4164 113.17 51.378 113.212 51.3299 113.24C51.378 113.212 51.4164 113.17 51.4399 113.12V113.12ZM44.7399 101.81C46.3496 102.948 47.6854 104.431 48.6499 106.15C49.6552 107.839 50.267 109.732 50.4399 111.69L44.7198 108.39L44.7399 101.81ZM44.7399 109.56L50.4799 112.87V117.87L44.7399 114.56V109.56ZM44.7399 115.7L50.4799 119.01V124.01L44.7399 120.69V115.7ZM44.7399 121.84L50.4799 125.15V129.86L44.7399 126.55V121.84ZM38.0298 104.48C38.0228 103.799 38.1855 103.127 38.5033 102.525C38.821 101.922 39.2838 101.409 39.8499 101.03C40.4704 100.737 41.1533 100.602 41.8386 100.635C42.5238 100.668 43.1904 100.869 43.7798 101.22V107.79L38.0499 104.48H38.0298ZM38.0298 110.61V105.61L43.7798 108.93V113.93L38.0298 110.61ZM38.0298 111.78L43.7798 115.1V120.1L37.9199 116.81L38.0298 111.78ZM38.0298 117.92L43.7798 121.24V125.95L38.0298 122.63V117.92Z" fill="white"/>
<path d="M16.5596 111.06C16.5687 111.236 16.6202 111.408 16.7096 111.56C16.7963 111.715 16.92 111.845 17.0696 111.94L23.8395 115.85L30.6096 119.76C30.6646 119.791 30.7266 119.807 30.7896 119.807C30.8526 119.807 30.9145 119.791 30.9695 119.76C31.0201 119.722 31.0602 119.672 31.0864 119.614C31.1126 119.556 31.124 119.493 31.1196 119.43V113.54V107.4V107.21V101.27C30.9872 98.7517 30.2615 96.3003 29.0015 94.1159C27.7416 91.9314 25.9831 90.0757 23.8696 88.7C19.8696 86.38 16.5796 88.25 16.5696 92.87V99V105.14L16.5596 111.06ZM17.0796 104.87C17.0129 104.83 17.0129 104.83 17.0796 104.87V104.87Z" fill="#76C1B4"/>
<g style="mix-blend-mode:multiply">
<g style="mix-blend-mode:multiply">
<path d="M30.1204 107.49V107.43L24.3804 104.12L24.3604 109.08L24.7404 109.29L24.7504 104.38L30.1204 107.49Z" fill="#76C1B4"/>
</g>
<g style="mix-blend-mode:multiply">
<path d="M30.0996 113.63V113.58L24.3596 110.26L24.3496 114.97L24.7196 115.18L24.7296 110.53L30.0996 113.63Z" fill="#76C1B4"/>
</g>
<g style="mix-blend-mode:multiply">
<path d="M23.3599 103.58V103.53L17.6099 100.21L17.5898 105.17L17.9698 105.38L17.9799 100.48L23.3599 103.58Z" fill="#76C1B4"/>
</g>
<g style="mix-blend-mode:multiply">
<path d="M24.4199 90.23V96.8L24.7899 97.01V90.51C24.6199 90.42 24.5399 90.31 24.4199 90.23Z" fill="#76C1B4"/>
</g>
<g style="mix-blend-mode:multiply">
<path d="M30.1399 101.34V101.29L24.3999 97.97L24.3799 102.95L24.7499 103.16L24.7699 98.24L30.1399 101.34Z" fill="#76C1B4"/>
</g>
<g style="mix-blend-mode:multiply">
<path d="M23.3804 97.4398V97.3798L17.6204 94.0598L17.6104 99.0398L17.9803 99.2498L18.0004 94.3298L23.3804 97.4398Z" fill="#76C1B4"/>
</g>
<g style="mix-blend-mode:multiply">
<path d="M23.34 109.73V109.67L17.59 106.35L17.5801 111.06L17.9501 111.27L17.9601 106.62L23.34 109.73Z" fill="#76C1B4"/>
</g>
<g style="mix-blend-mode:multiply">
<path d="M19.8396 89.7199C20.3927 89.445 21.002 89.302 21.6196 89.302C22.2372 89.302 22.8465 89.445 23.3996 89.7199V89.5899C22.8102 89.2389 22.1435 89.038 21.4583 89.0049C20.7731 88.9718 20.0901 89.1074 19.4696 89.3999C18.9036 89.7785 18.4408 90.2922 18.123 90.8946C17.8053 91.4969 17.6426 92.1689 17.6496 92.8499L18.0296 93.0699C18.0361 92.4064 18.2044 91.7545 18.5198 91.1708C18.8352 90.587 19.2882 90.089 19.8396 89.7199Z" fill="#76C1B4"/>
</g>
</g>
<path d="M16.5596 111.06C16.5687 111.236 16.6202 111.408 16.7096 111.56C16.7963 111.715 16.92 111.845 17.0696 111.94L23.8395 115.85L30.6096 119.76C30.6646 119.791 30.7266 119.807 30.7896 119.807C30.8526 119.807 30.9145 119.791 30.9695 119.76C31.0201 119.722 31.0602 119.672 31.0864 119.614C31.1126 119.556 31.124 119.493 31.1196 119.43V113.54V107.4V101.27C30.9872 98.7517 30.2615 96.3003 29.0015 94.1159C27.7416 91.9314 25.9831 90.0757 23.8696 88.7C19.8696 86.38 16.5796 88.25 16.5696 92.87V99V105.14L16.5596 111.06ZM31.1196 101.5C31.0961 101.55 31.0577 101.592 31.0096 101.62C31.0577 101.592 31.0961 101.55 31.1196 101.5V101.5ZM24.4196 90.23C26.0293 91.368 27.3651 92.8507 28.3296 94.57C29.3349 96.2588 29.9467 98.1523 30.1196 100.11L24.3996 96.81L24.4196 90.23ZM24.4196 97.98L30.1595 101.29V106.29L24.4196 102.98V97.98ZM24.4196 104.12L30.1595 107.43V112.43L24.4196 109.11V104.12ZM24.4196 110.26L30.1595 113.57V118.28L24.4196 114.97V110.26ZM17.6196 92.9C17.6125 92.219 17.7753 91.547 18.093 90.9447C18.4108 90.3424 18.8736 89.8287 19.4396 89.45C20.0601 89.1575 20.743 89.0219 21.4283 89.055C22.1135 89.0882 22.7801 89.289 23.3696 89.64V96.21L17.6196 92.9ZM17.6196 99.03V94.03L23.3696 97.35V102.35L17.6196 99.04V99.03ZM17.6196 100.2L23.3696 103.52V108.52L17.6196 105.17V100.2ZM17.6196 106.34L23.3696 109.66V114.37L17.6196 111.06V106.34Z" fill="white"/>
<path d="M56.6895 178.22C56.6986 178.396 56.75 178.568 56.8394 178.72C56.9261 178.874 57.0499 179.005 57.1995 179.1L63.9694 183.01L70.7394 186.92C70.7945 186.951 70.8564 186.967 70.9194 186.967C70.9824 186.967 71.0444 186.951 71.0994 186.92C71.1499 186.882 71.1901 186.832 71.2163 186.774C71.2425 186.716 71.2539 186.653 71.2495 186.59V180.7V174.56V174.37V168.43C71.1171 165.912 70.3914 163.46 69.1314 161.276C67.8715 159.091 66.113 157.236 63.9995 155.86C59.9995 153.54 56.7095 155.41 56.6995 160.03V166.16V172.3L56.6895 178.22ZM57.2095 172.03C57.1428 171.99 57.1428 171.99 57.2095 172.03V172.03Z" fill="#76C1B4"/>
<path d="M57.1699 166.54L57.3799 166.66L57.1699 166.54Z" fill="#76C1B4"/>
<g style="mix-blend-mode:multiply">
<g style="mix-blend-mode:multiply">
<path d="M70.2502 174.64V174.59L64.5103 171.27L64.4902 176.23L64.8702 176.45L64.8802 171.54L70.2502 174.64Z" fill="#76C1B4"/>
</g>
<g style="mix-blend-mode:multiply">
<path d="M70.2295 180.79V180.73L64.4895 177.42L64.4795 182.13L64.8495 182.34L64.8595 177.68L70.2295 180.79Z" fill="#76C1B4"/>
</g>
<g style="mix-blend-mode:multiply">
<path d="M63.4897 170.74V170.68L57.7397 167.36L57.7197 172.32L58.0997 172.54L58.1097 167.63L63.4897 170.74Z" fill="#76C1B4"/>
</g>
<g style="mix-blend-mode:multiply">
<path d="M64.5498 157.38V163.95L64.9198 164.16V157.66C64.7898 157.58 64.6698 157.47 64.5498 157.38Z" fill="#76C1B4"/>
</g>
<g style="mix-blend-mode:multiply">
<path d="M70.2698 168.5V168.44L64.5198 165.13L64.5098 170.1L64.8798 170.31L64.8998 165.4L70.2698 168.5Z" fill="#76C1B4"/>
</g>
<g style="mix-blend-mode:multiply">
<path d="M63.5103 164.59V164.54L57.7502 161.22L57.7402 166.19L58.1102 166.41L58.1302 161.49L63.5103 164.59Z" fill="#76C1B4"/>
</g>
<g style="mix-blend-mode:multiply">
<path d="M63.4699 176.88V176.83L57.7199 173.51L57.71 178.22L58.08 178.43L58.0899 173.78L63.4699 176.88Z" fill="#76C1B4"/>
</g>
<g style="mix-blend-mode:multiply">
<path d="M59.9695 156.87C60.5226 156.595 61.1319 156.452 61.7495 156.452C62.3672 156.452 62.9764 156.595 63.5295 156.87V156.81C62.9401 156.459 62.2735 156.258 61.5882 156.225C60.903 156.192 60.2201 156.327 59.5995 156.62C59.0335 156.998 58.5707 157.512 58.253 158.115C57.9352 158.717 57.7725 159.389 57.7795 160.07L58.1595 160.29C58.1546 159.614 58.3174 158.949 58.6333 158.352C58.9492 157.755 59.4083 157.246 59.9695 156.87Z" fill="#76C1B4"/>
</g>
</g>
<path d="M56.6895 178.22C56.6986 178.396 56.75 178.568 56.8394 178.72C56.9261 178.874 57.0499 179.005 57.1995 179.1L63.9694 183.01L70.7394 186.92C70.7945 186.951 70.8564 186.967 70.9194 186.967C70.9824 186.967 71.0444 186.951 71.0994 186.92C71.1499 186.882 71.1901 186.832 71.2163 186.774C71.2425 186.716 71.2539 186.653 71.2495 186.59V180.7V174.56V168.43C71.1171 165.912 70.3914 163.46 69.1314 161.276C67.8715 159.091 66.113 157.236 63.9995 155.86C59.9995 153.54 56.7095 155.41 56.6995 160.03V166.16V172.3L56.6895 178.22ZM71.2495 168.66C71.226 168.71 71.1876 168.752 71.1395 168.78C71.1892 168.75 71.2278 168.704 71.2495 168.65V168.66ZM64.5494 157.39C66.159 158.528 67.4947 160.011 68.4595 161.73C69.4644 163.419 70.0762 165.312 70.2495 167.27L64.5294 163.97L64.5494 157.39ZM64.5494 165.14L70.2894 168.45V173.45L64.5494 170.14V165.14ZM64.5494 171.28L70.2894 174.6V179.6L64.5494 176.28V171.28ZM64.5494 177.42L70.2894 180.73V185.44L64.5494 182.13V177.42ZM57.8394 160.06C57.828 159.383 57.9846 158.713 58.2952 158.111C58.6058 157.509 59.0608 156.993 59.6194 156.61C60.24 156.317 60.9229 156.182 61.6082 156.215C62.2934 156.248 62.96 156.449 63.5494 156.8V163.37L57.8195 160.06H57.8394ZM57.8394 166.19V161.19L63.5894 164.51V169.51L57.8394 166.19ZM57.8394 167.36L63.5894 170.68V175.68L57.8394 172.36V167.36ZM57.8394 173.5L63.5894 176.82V181.53L57.8394 178.21V173.5Z" fill="white"/>
<path d="M36.3594 166.4C36.3685 166.576 36.42 166.748 36.5094 166.9C36.5961 167.054 36.7198 167.185 36.8694 167.28L43.6394 171.19L50.4094 175.1C50.4647 175.13 50.5265 175.145 50.5894 175.145C50.6522 175.145 50.7141 175.13 50.7694 175.1C50.8199 175.062 50.8601 175.012 50.8863 174.954C50.9125 174.896 50.9238 174.833 50.9194 174.77V168.88V162.74V162.55V156.61C50.787 154.092 50.0613 151.64 48.8013 149.456C47.5414 147.271 45.7829 145.415 43.6694 144.04C39.6694 141.72 36.3794 143.59 36.3694 148.21V154.34V160.48L36.3594 166.4ZM36.8794 160.21C36.8127 160.17 36.8161 160.17 36.8894 160.21H36.8794Z" fill="#76C1B4"/>
<path d="M36.8496 154.72L37.0596 154.84L36.8496 154.72Z" fill="#76C1B4"/>
<g style="mix-blend-mode:multiply">
<g style="mix-blend-mode:multiply">
<path d="M49.9299 162.82V162.77L44.1899 159.45L44.1699 164.41L44.5399 164.63L44.5599 159.72L49.9299 162.82Z" fill="#76C1B4"/>
</g>
<g style="mix-blend-mode:multiply">
<path d="M49.9103 168.96V168.91L44.1703 165.59L44.1504 170.3L44.5204 170.52L44.5403 165.86L49.9103 168.96Z" fill="#76C1B4"/>
</g>
<g style="mix-blend-mode:multiply">
<path d="M43.1603 158.92V158.86L37.4103 155.54L37.4004 160.5L37.7704 160.72L37.7803 155.81L43.1603 158.92Z" fill="#76C1B4"/>
</g>
<g style="mix-blend-mode:multiply">
<path d="M44.2197 145.56V152.13L44.5897 152.34V145.84C44.4697 145.76 44.3497 145.65 44.2197 145.56Z" fill="#76C1B4"/>
</g>
<g style="mix-blend-mode:multiply">
<path d="M49.9395 156.68V156.62L44.1995 153.31L44.1895 158.28L44.5594 158.49L44.5695 153.57L49.9395 156.68Z" fill="#76C1B4"/>
</g>
<g style="mix-blend-mode:multiply">
<path d="M43.1799 152.77V152.72L37.4299 149.4L37.4199 154.37L37.7899 154.58L37.7999 149.67L43.1799 152.77Z" fill="#76C1B4"/>
</g>
<g style="mix-blend-mode:multiply">
<path d="M43.1499 165.06V165.01L37.3999 161.69L37.3799 166.39L37.7499 166.61L37.7699 161.95L43.1499 165.06Z" fill="#76C1B4"/>
</g>
<g style="mix-blend-mode:multiply">
<path d="M39.6199 145.05C40.173 144.775 40.7823 144.632 41.3999 144.632C42.0176 144.632 42.6268 144.775 43.1799 145.05V144.92C42.5905 144.569 41.9239 144.368 41.2386 144.335C40.5534 144.302 39.8705 144.437 39.2499 144.73C38.6839 145.109 38.2211 145.622 37.9034 146.225C37.5856 146.827 37.4229 147.499 37.4299 148.18L37.8099 148.4C37.8165 147.736 37.9847 147.085 38.3001 146.501C38.6155 145.917 39.0686 145.419 39.6199 145.05V145.05Z" fill="#76C1B4"/>
</g>
</g>
<path d="M36.3594 166.4C36.3685 166.576 36.42 166.748 36.5094 166.9C36.5961 167.054 36.7198 167.185 36.8694 167.28L43.6394 171.19L50.4094 175.1C50.4647 175.13 50.5265 175.145 50.5894 175.145C50.6522 175.145 50.7141 175.13 50.7694 175.1C50.8199 175.062 50.8601 175.012 50.8863 174.954C50.9125 174.896 50.9238 174.833 50.9194 174.77V168.88V162.74V156.61C50.787 154.092 50.0613 151.64 48.8013 149.456C47.5414 147.271 45.7829 145.415 43.6694 144.04C39.6694 141.72 36.3794 143.59 36.3694 148.21V154.34V160.48L36.3594 166.4ZM50.9194 156.81C50.8959 156.86 50.8575 156.902 50.8094 156.93C50.8575 156.902 50.8959 156.86 50.9194 156.81V156.81ZM44.2194 145.54C45.8291 146.678 47.1649 148.161 48.1294 149.88C49.1347 151.569 49.7465 153.462 49.9194 155.42L44.1994 152.12L44.2194 145.54ZM44.2194 153.29L49.9594 156.6V161.6L44.2194 158.29V153.29ZM44.2194 159.43L49.9594 162.74V167.74L44.2194 164.42V159.43ZM44.2194 165.57L49.9594 168.89V173.6L44.2194 170.29V165.57ZM37.5094 148.21C37.5024 147.529 37.6651 146.857 37.9828 146.255C38.3006 145.652 38.7634 145.139 39.3294 144.76C39.95 144.467 40.6328 144.332 41.3181 144.365C42.0033 144.398 42.6699 144.599 43.2594 144.95V151.52L37.5294 148.21H37.5094ZM37.5094 154.34V149.34L43.2594 152.66V157.66L37.5094 154.34ZM37.5094 155.51L43.2594 158.83V163.83L37.5094 160.51V155.51ZM37.5094 161.65L43.2594 164.97V169.68L37.5094 166.36V161.65Z" fill="white"/>
<path d="M16.04 154.81C16.0492 154.986 16.1007 155.158 16.1901 155.31C16.2768 155.465 16.4004 155.595 16.55 155.69L23.3201 159.6L30.09 163.51C30.1451 163.541 30.2071 163.557 30.2701 163.557C30.3331 163.557 30.395 163.541 30.4501 163.51C30.5006 163.472 30.5408 163.422 30.567 163.364C30.5932 163.306 30.6045 163.243 30.6 163.18V157.29V151.15V150.96V145.02C30.4677 142.502 29.7419 140.05 28.482 137.866C27.2221 135.681 25.4636 133.826 23.35 132.45C19.35 130.13 16.06 132 16.05 136.62V142.75V148.89L16.04 154.81ZM16.5601 148.62C16.4934 148.56 16.4934 148.55 16.5601 148.59V148.62Z" fill="#76C1B4"/>
<g style="mix-blend-mode:multiply">
<g style="mix-blend-mode:multiply">
<path d="M29.5996 151.2V151.15L23.8596 147.83L23.8496 152.79L24.2196 153.01L24.2296 148.1L29.5996 151.2Z" fill="#76C1B4"/>
</g>
<g style="mix-blend-mode:multiply">
<path d="M29.59 157.34V157.29L23.85 153.97L23.8301 158.68L24.2001 158.9L24.22 154.24L29.59 157.34Z" fill="#76C1B4"/>
</g>
<g style="mix-blend-mode:multiply">
<path d="M22.84 147.3V147.24L17.09 143.92L17.0801 148.88L17.4501 149.1L17.4601 144.19L22.84 147.3Z" fill="#76C1B4"/>
</g>
<g style="mix-blend-mode:multiply">
<path d="M23.8994 133.94V140.51L24.2694 140.72V134.22C24.1494 134.14 24.0294 134.03 23.8994 133.94Z" fill="#76C1B4"/>
</g>
<g style="mix-blend-mode:multiply">
<path d="M29.6191 145.06V145L23.8792 141.69L23.8691 146.66L24.2391 146.87L24.2491 141.95L29.6191 145.06Z" fill="#76C1B4"/>
</g>
<g style="mix-blend-mode:multiply">
<path d="M22.8596 141.15V141.1L17.1096 137.78L17.0996 142.75L17.4696 142.96L17.4796 138.05L22.8596 141.15Z" fill="#76C1B4"/>
</g>
<g style="mix-blend-mode:multiply">
<path d="M22.8296 153.44V153.39L17.0696 150.06L17.0596 154.77L17.4296 154.99L17.4496 150.33L22.8296 153.44Z" fill="#76C1B4"/>
</g>
<g style="mix-blend-mode:multiply">
<path d="M19.3191 133.43C19.8722 133.155 20.4815 133.012 21.0991 133.012C21.7167 133.012 22.326 133.155 22.8791 133.43V133.3C22.2897 132.949 21.623 132.748 20.9378 132.715C20.2525 132.682 19.5697 132.817 18.9491 133.11C18.3831 133.489 17.9203 134.002 17.6026 134.605C17.2848 135.207 17.1221 135.879 17.1291 136.56L17.5091 136.78C17.5157 136.116 17.684 135.464 17.9994 134.881C18.3148 134.297 18.7678 133.799 19.3191 133.43V133.43Z" fill="#76C1B4"/>
</g>
</g>
<path d="M16.04 154.81C16.0492 154.986 16.1007 155.158 16.1901 155.31C16.2768 155.465 16.4004 155.595 16.55 155.69L23.3201 159.6L30.09 163.51C30.1451 163.541 30.2071 163.557 30.2701 163.557C30.3331 163.557 30.395 163.541 30.4501 163.51C30.5006 163.472 30.5408 163.422 30.567 163.364C30.5932 163.306 30.6045 163.243 30.6 163.18V157.29V151.15V145.02C30.4677 142.502 29.7419 140.05 28.482 137.866C27.2221 135.681 25.4636 133.826 23.35 132.45C19.35 130.13 16.06 132 16.05 136.62V142.75V148.89L16.04 154.81ZM30.6201 145.21C30.5966 145.26 30.5582 145.302 30.5101 145.33C30.5582 145.302 30.5966 145.26 30.6201 145.21V145.21ZM23.92 133.94C25.5296 135.078 26.8653 136.561 27.8301 138.28C28.8339 139.966 29.4457 141.856 29.6201 143.81L23.9001 140.51L23.92 133.94ZM23.92 141.69L29.66 145V150L23.92 146.69V141.69ZM23.92 147.83L29.66 151.14V156.14L23.85 152.81L23.92 147.83ZM23.92 153.97L29.66 157.29V162L23.92 158.69V153.97ZM17.2101 136.61C17.2031 135.929 17.3657 135.257 17.6835 134.655C18.0012 134.052 18.464 133.539 19.03 133.16C19.6506 132.868 20.3335 132.732 21.0187 132.765C21.704 132.798 22.3706 132.999 22.9601 133.35V139.92L17.23 136.61H17.2101ZM17.2101 142.74V137.74L22.9601 141.06V146.06L17.2101 142.74V142.74ZM17.2101 143.91L22.9601 147.23V152.23L17.2101 148.91V143.91ZM17.2101 150.05L22.9601 153.37V158.08L17.0601 154.81L17.2101 150.05Z" fill="white"/>
<path d="M56.1699 221.93C56.1791 222.106 56.2306 222.278 56.3199 222.43C56.4066 222.584 56.5303 222.715 56.6799 222.81L63.45 226.72L70.2199 230.63C70.275 230.661 70.337 230.677 70.4 230.677C70.463 230.677 70.5249 230.661 70.58 230.63C70.6305 230.592 70.6706 230.542 70.6968 230.484C70.723 230.426 70.7344 230.363 70.7299 230.3V224.41V218.27V218.08V212.14C70.5976 209.622 69.8718 207.17 68.6119 204.986C67.3519 202.801 65.5935 200.946 63.4799 199.57C59.4799 197.25 56.1899 199.12 56.1799 203.74V209.87V216.01L56.1699 221.93ZM56.6899 215.74C56.6433 215.7 56.6433 215.7 56.6899 215.74V215.74Z" fill="#76C1B4"/>
<path d="M56.6201 210.25L56.8301 210.37L56.6201 210.25Z" fill="#76C1B4"/>
<g style="mix-blend-mode:multiply">
<g style="mix-blend-mode:multiply">
<path d="M69.7295 218.35V218.3L63.9895 214.99L63.9795 219.95L64.3495 220.16L64.3595 215.25L69.7295 218.35Z" fill="#76C1B4"/>
</g>
<g style="mix-blend-mode:multiply">
<path d="M69.7189 224.5V224.44L63.9689 221.13L63.959 225.84L64.329 226.05L64.3489 221.4L69.7189 224.5Z" fill="#76C1B4"/>
</g>
<g style="mix-blend-mode:multiply">
<path d="M62.9689 214.45V214.4L57.2189 211.08L57.209 216.04L57.579 216.25L57.5889 211.34L62.9689 214.45Z" fill="#76C1B4"/>
</g>
<g style="mix-blend-mode:multiply">
<path d="M64.0293 201.1V207.67L64.3994 207.88V201.38C64.2794 201.29 64.1593 201.18 64.0293 201.1Z" fill="#76C1B4"/>
</g>
<g style="mix-blend-mode:multiply">
<path d="M69.749 212.21V212.16L64.009 208.84L63.999 213.81L64.369 214.03L64.379 209.11L69.749 212.21Z" fill="#76C1B4"/>
</g>
<g style="mix-blend-mode:multiply">
<path d="M62.9897 208.31V208.25L57.2397 204.93L57.2197 209.91L57.5997 210.12L57.6097 205.2L62.9897 208.31Z" fill="#76C1B4"/>
</g>
<g style="mix-blend-mode:multiply">
<path d="M62.9595 220.59V220.54L57.1995 217.22L57.1895 221.93L57.5594 222.14L57.5795 217.49L62.9595 220.59Z" fill="#76C1B4"/>
</g>
<g style="mix-blend-mode:multiply">
<path d="M59.449 200.59C60.0021 200.315 60.6113 200.172 61.229 200.172C61.8466 200.172 62.4559 200.315 63.009 200.59V200.46C62.4196 200.109 61.7529 199.908 61.0677 199.875C60.3824 199.842 59.6996 199.978 59.079 200.27C58.513 200.649 58.0502 201.162 57.7325 201.765C57.4147 202.367 57.252 203.039 57.259 203.72L57.639 203.94C57.6456 203.277 57.8138 202.625 58.1292 202.041C58.4446 201.457 58.8977 200.959 59.449 200.59V200.59Z" fill="#76C1B4"/>
</g>
</g>
<path d="M56.1699 221.93C56.1791 222.106 56.2306 222.278 56.3199 222.43C56.4066 222.584 56.5303 222.715 56.6799 222.81L63.45 226.72L70.2199 230.63C70.275 230.661 70.337 230.677 70.4 230.677C70.463 230.677 70.5249 230.661 70.58 230.63C70.6305 230.592 70.6706 230.542 70.6968 230.484C70.723 230.426 70.7344 230.363 70.7299 230.3V224.41V218.27V212.14C70.5976 209.622 69.8718 207.17 68.6119 204.986C67.3519 202.801 65.5935 200.946 63.4799 199.57C59.4799 197.25 56.1899 199.12 56.1799 203.74V209.87V216.01L56.1699 221.93ZM70.7299 212.37C70.7065 212.42 70.6681 212.462 70.6199 212.49C70.6681 212.462 70.7065 212.42 70.7299 212.37V212.37ZM64.0299 201.1C65.6397 202.238 66.9754 203.721 67.9399 205.44C68.9452 207.129 69.557 209.022 69.7299 210.98L64.0099 207.68L64.0299 201.1ZM64.0299 208.85L69.77 212.16V217.16L63.9999 213.81L64.0299 208.85ZM64.0299 214.99L69.77 218.3V223.3L64.0299 219.98V214.99ZM64.0299 221.13L69.77 224.45V229.16L63.96 225.81L64.0299 221.13ZM57.2599 203.81C57.2529 203.129 57.4156 202.457 57.7334 201.855C58.0512 201.252 58.5139 200.739 59.08 200.36C59.7005 200.067 60.3834 199.932 61.0686 199.965C61.7538 199.998 62.4205 200.199 63.0099 200.55V207.12L57.2599 203.81ZM57.2599 209.94V204.94L63.0099 208.26V213.26L57.2599 209.94ZM57.2599 211.11L63.0099 214.43V219.43L57.2599 216.11V211.11ZM57.2599 217.25L63.0099 220.57V225.28L57.2599 221.96V217.25Z" fill="white"/>
<path d="M35.8496 210.11C35.8588 210.286 35.9102 210.458 35.9996 210.61C36.0863 210.764 36.21 210.895 36.3596 210.99L43.1296 214.9L49.8997 218.81C49.9547 218.841 50.0167 218.857 50.0797 218.857C50.1427 218.857 50.2046 218.841 50.2596 218.81C50.3102 218.772 50.3503 218.722 50.3765 218.664C50.4027 218.606 50.4141 218.543 50.4096 218.48V212.59V206.45V206.26V200.32C50.2725 197.815 49.5484 195.378 48.296 193.205C47.0436 191.032 45.2979 189.184 43.1996 187.81C39.1996 185.49 35.9097 187.36 35.8997 191.98V198.11V204.25L35.8496 210.11ZM36.3696 203.92C36.303 203.847 36.303 203.847 36.3696 203.92V203.92Z" fill="#76C1B4"/>
<path d="M36.3301 198.43L36.54 198.55L36.3301 198.43Z" fill="#76C1B4"/>
<g style="mix-blend-mode:multiply">
<g style="mix-blend-mode:multiply">
<path d="M49.4103 206.53V206.48L43.6703 203.16L43.6504 208.13L44.0303 208.34L44.0403 203.43L49.4103 206.53Z" fill="#76C1B4"/>
</g>
<g style="mix-blend-mode:multiply">
<path d="M49.3906 212.68V212.62L43.6506 209.31L43.6406 214.02L44.0106 214.23L44.0206 209.57L49.3906 212.68Z" fill="#76C1B4"/>
</g>
<g style="mix-blend-mode:multiply">
<path d="M42.6499 202.63V202.57L36.8999 199.25L36.8799 204.22L37.2499 204.43L37.2699 199.52L42.6499 202.63Z" fill="#76C1B4"/>
</g>
<g style="mix-blend-mode:multiply">
<path d="M43.71 189.27V195.84L44.08 196.05V189.55C43.95 189.47 43.84 189.36 43.71 189.27Z" fill="#76C1B4"/>
</g>
<g style="mix-blend-mode:multiply">
<path d="M49.4299 200.39V200.33L43.6899 197.02L43.6699 201.99L44.0399 202.21L44.0599 197.29L49.4299 200.39Z" fill="#76C1B4"/>
</g>
<g style="mix-blend-mode:multiply">
<path d="M42.6703 196.48V196.43L36.9203 193.11L36.9004 198.08L37.2704 198.3L37.2903 193.38L42.6703 196.48Z" fill="#76C1B4"/>
</g>
<g style="mix-blend-mode:multiply">
<path d="M42.6301 208.77V208.72L36.8801 205.4L36.8701 210.11L37.2401 210.32L37.2501 205.67L42.6301 208.77Z" fill="#76C1B4"/>
</g>
<g style="mix-blend-mode:multiply">
<path d="M39.1297 188.81C39.6828 188.535 40.292 188.392 40.9096 188.392C41.5273 188.392 42.1366 188.535 42.6897 188.81V188.68C42.1002 188.329 41.4336 188.128 40.7483 188.095C40.0631 188.062 39.3802 188.197 38.7597 188.49C38.1937 188.869 37.7309 189.382 37.4131 189.985C37.0954 190.587 36.9326 191.259 36.9397 191.94L37.3197 192.16C37.3262 191.496 37.4945 190.845 37.8099 190.261C38.1253 189.677 38.5783 189.179 39.1297 188.81V188.81Z" fill="#76C1B4"/>
</g>
</g>
<path d="M35.8496 210.11C35.8588 210.286 35.9102 210.458 35.9996 210.61C36.0863 210.764 36.21 210.895 36.3596 210.99L43.1296 214.9L49.8997 218.81C49.9547 218.841 50.0167 218.857 50.0797 218.857C50.1427 218.857 50.2046 218.841 50.2596 218.81C50.3102 218.772 50.3503 218.722 50.3765 218.664C50.4027 218.606 50.4141 218.543 50.4096 218.48V212.59V206.45V200.32C50.2725 197.815 49.5484 195.378 48.296 193.205C47.0436 191.032 45.2979 189.184 43.1996 187.81C39.1996 185.49 35.9097 187.36 35.8997 191.98V198.11V204.25L35.8496 210.11ZM50.4096 200.55C50.3862 200.6 50.3478 200.642 50.2996 200.67C50.3494 200.64 50.3879 200.594 50.4096 200.54V200.55ZM43.7097 189.28C45.3183 190.415 46.6539 191.894 47.6196 193.61C48.6249 195.299 49.2367 197.192 49.4096 199.15L43.6896 195.85L43.7097 189.28ZM43.7097 197.03L49.4496 200.34V205.34L43.7097 202.03V197.03ZM43.7097 203.17L49.4496 206.48V211.48L43.6196 208.12L43.7097 203.17ZM43.7097 209.31L49.4496 212.62V217.33L43.6196 214.02L43.7097 209.31ZM36.9996 191.95C36.9926 191.269 37.1553 190.597 37.4731 189.995C37.7908 189.392 38.2536 188.879 38.8196 188.5C39.4402 188.207 40.1231 188.072 40.8083 188.105C41.4935 188.138 42.1602 188.339 42.7496 188.69V195.26L37.0197 191.95H36.9996ZM36.9996 198.08V193.08L42.7496 196.4V201.4L36.9996 198.08ZM36.9996 199.25L42.7496 202.57V207.57L36.9996 204.25V199.25ZM36.9996 205.39L42.7496 208.71V213.42L36.9996 210.1V205.39Z" fill="white"/>
<path d="M15.5195 198.49C15.5287 198.666 15.5801 198.838 15.6695 198.99C15.7562 199.144 15.8799 199.275 16.0295 199.37L22.7995 203.28L29.5695 207.19C29.6248 207.22 29.6867 207.235 29.7495 207.235C29.8123 207.235 29.8742 207.22 29.9295 207.19C29.98 207.152 30.0202 207.102 30.0464 207.044C30.0726 206.986 30.084 206.923 30.0795 206.86V200.97V194.83V194.64V188.7C29.9472 186.182 29.2214 183.73 27.9614 181.546C26.7015 179.361 24.9431 177.506 22.8295 176.13C18.8295 173.81 15.5395 175.68 15.5295 180.3V186.43V192.57L15.5195 198.49ZM16.0395 192.3C15.9728 192.26 15.9762 192.26 16.0495 192.3H16.0395Z" fill="#76C1B4"/>
<g style="mix-blend-mode:multiply">
<g style="mix-blend-mode:multiply">
<path d="M29.09 194.91V194.86L23.35 191.54L23.3301 196.51L23.7001 196.72L23.72 191.81L29.09 194.91Z" fill="#76C1B4"/>
</g>
<g style="mix-blend-mode:multiply">
<path d="M29.0703 201.06V201L23.3303 197.69L23.3203 202.4L23.6903 202.61L23.7003 197.95L29.0703 201.06Z" fill="#76C1B4"/>
</g>
<g style="mix-blend-mode:multiply">
<path d="M22.3306 191.01V190.95L16.5806 187.63L16.5605 192.6L16.9305 192.81L16.9506 187.9L22.3306 191.01Z" fill="#76C1B4"/>
</g>
<g style="mix-blend-mode:multiply">
<path d="M23.3896 177.65V184.22L23.7596 184.43V177.93C23.6196 177.81 23.5096 177.74 23.3896 177.65Z" fill="#76C1B4"/>
</g>
<g style="mix-blend-mode:multiply">
<path d="M29.1096 188.77V188.71L23.3596 185.4L23.3496 190.37L23.7196 190.59L23.7296 185.67L29.1096 188.77Z" fill="#76C1B4"/>
</g>
<g style="mix-blend-mode:multiply">
<path d="M22.34 184.86V184.81L16.59 181.49L16.5801 186.46L16.9501 186.68L16.9601 181.76L22.34 184.86Z" fill="#76C1B4"/>
</g>
<g style="mix-blend-mode:multiply">
<path d="M22.3101 197.15V197.1L16.5601 193.78L16.54 198.49L16.92 198.7L16.9301 194.05L22.3101 197.15Z" fill="#76C1B4"/>
</g>
<g style="mix-blend-mode:multiply">
<path d="M18.8103 177.14C19.3635 176.865 19.9727 176.722 20.5903 176.722C21.2079 176.722 21.8172 176.865 22.3703 177.14V177.01C21.7809 176.659 21.1143 176.458 20.4291 176.425C19.7438 176.392 19.0609 176.528 18.4403 176.82C17.8743 177.199 17.4115 177.712 17.0938 178.315C16.776 178.917 16.6133 179.589 16.6203 180.27L17.0003 180.49C17.0069 179.827 17.1752 179.175 17.4906 178.591C17.806 178.007 18.259 177.509 18.8103 177.14V177.14Z" fill="#76C1B4"/>
</g>
</g>
<path d="M15.5195 198.49C15.5287 198.666 15.5801 198.838 15.6695 198.99C15.7562 199.144 15.8799 199.275 16.0295 199.37L22.7995 203.28L29.5695 207.19C29.6248 207.22 29.6867 207.235 29.7495 207.235C29.8123 207.235 29.8742 207.22 29.9295 207.19C29.98 207.152 30.0202 207.102 30.0464 207.044C30.0726 206.986 30.084 206.923 30.0795 206.86V200.97V194.83V188.7C29.9472 186.182 29.2214 183.73 27.9614 181.546C26.7015 179.361 24.9431 177.506 22.8295 176.13C18.8295 173.81 15.5395 175.68 15.5295 180.3V186.43V192.57L15.5195 198.49ZM30.0795 188.93C30.0561 188.98 30.0176 189.022 29.9695 189.05C30.0229 189.021 30.0652 188.976 30.0895 188.92L30.0795 188.93ZM23.3795 177.66C24.9893 178.798 26.325 180.281 27.2895 182C28.2948 183.689 28.9066 185.582 29.0795 187.54L23.3595 184.24L23.3795 177.66ZM23.3795 185.41L29.1195 188.72V193.72L23.3795 190.41V185.41ZM23.3795 191.55L29.1195 194.87V199.87L23.3795 196.55V191.55ZM23.3795 197.69L29.1195 201V205.71L23.3795 202.4V197.69ZM16.6195 180.33C16.6125 179.649 16.7752 178.977 17.093 178.375C17.4107 177.772 17.8735 177.259 18.4395 176.88C19.0601 176.587 19.743 176.452 20.4282 176.485C21.1135 176.518 21.7801 176.719 22.3695 177.07V183.64L16.6195 180.33ZM16.6195 186.46V181.46L22.3695 184.78V189.78L16.6195 186.46ZM16.6195 187.63L22.3695 190.95V195.95L16.6195 192.63V187.63ZM16.6195 193.77L22.3695 197.09V201.81L16.6195 198.49V193.77Z" fill="white"/>
<path d="M56.1699 269.26C56.1791 269.436 56.2306 269.608 56.3199 269.76C56.4066 269.914 56.5303 270.045 56.6799 270.14L63.45 274.05L70.2199 277.96C70.275 277.991 70.337 278.007 70.4 278.007C70.463 278.007 70.5249 277.991 70.58 277.96C70.6305 277.922 70.6706 277.872 70.6968 277.814C70.723 277.756 70.7344 277.693 70.7299 277.63V271.74V265.6V265.41V259.47C70.5976 256.952 69.8718 254.5 68.6119 252.316C67.3519 250.131 65.5935 248.276 63.4799 246.9C59.4799 244.58 56.1899 246.45 56.1799 251.07V257.2V263.34L56.1699 269.26ZM56.6899 263.07C56.6433 263.03 56.6433 263.03 56.6899 263.07V263.07Z" fill="#76C1B4"/>
<path d="M56.6201 257.58L56.8301 257.7L56.6201 257.58Z" fill="#76C1B4"/>
<g style="mix-blend-mode:multiply">
<g style="mix-blend-mode:multiply">
<path d="M69.7295 265.68V265.63L63.9895 262.32L63.9795 267.28L64.3495 267.49L64.3595 262.58L69.7295 265.68Z" fill="#76C1B4"/>
</g>
<g style="mix-blend-mode:multiply">
<path d="M69.7189 271.83V271.78L63.9689 268.46L63.959 273.17L64.329 273.38L64.3489 268.73L69.7189 271.83Z" fill="#76C1B4"/>
</g>
<g style="mix-blend-mode:multiply">
<path d="M62.9689 261.78V261.73L57.2189 258.41L57.209 263.37L57.579 263.58L57.5889 258.68L62.9689 261.78Z" fill="#76C1B4"/>
</g>
<g style="mix-blend-mode:multiply">
<path d="M64.0293 248.43V255L64.3994 255.21V248.71C64.2794 248.62 64.1593 248.51 64.0293 248.43Z" fill="#76C1B4"/>
</g>
<g style="mix-blend-mode:multiply">
<path d="M69.749 259.54V259.49L64.009 256.17L63.999 261.14L64.369 261.36L64.379 256.44L69.749 259.54Z" fill="#76C1B4"/>
</g>
<g style="mix-blend-mode:multiply">
<path d="M62.9897 255.64V255.58L57.2397 252.26L57.2197 257.23L57.5997 257.45L57.6097 252.53L62.9897 255.64Z" fill="#76C1B4"/>
</g>
<g style="mix-blend-mode:multiply">
<path d="M62.9595 267.93V267.87L57.1995 264.55L57.1895 269.26L57.5594 269.47L57.5795 264.82L62.9595 267.93Z" fill="#76C1B4"/>
</g>
<g style="mix-blend-mode:multiply">
<path d="M59.449 247.92C60.0021 247.645 60.6113 247.502 61.229 247.502C61.8466 247.502 62.4559 247.645 63.009 247.92V247.81C62.4196 247.459 61.7529 247.258 61.0677 247.225C60.3824 247.192 59.6996 247.327 59.079 247.62C58.513 247.998 58.0502 248.512 57.7325 249.115C57.4147 249.717 57.252 250.389 57.259 251.07L57.639 251.29C57.6423 250.623 57.809 249.967 58.1245 249.38C58.4401 248.792 58.8949 248.291 59.449 247.92V247.92Z" fill="#76C1B4"/>
</g>
</g>
<path d="M56.1699 269.26C56.1791 269.436 56.2306 269.608 56.3199 269.76C56.4066 269.914 56.5303 270.045 56.6799 270.14L63.45 274.05L70.2199 277.96C70.275 277.991 70.337 278.007 70.4 278.007C70.463 278.007 70.5249 277.991 70.58 277.96C70.6305 277.922 70.6706 277.872 70.6968 277.814C70.723 277.756 70.7344 277.693 70.7299 277.63V271.74V265.6V259.47C70.5976 256.952 69.8718 254.5 68.6119 252.316C67.3519 250.131 65.5935 248.276 63.4799 246.9C59.4799 244.58 56.1899 246.45 56.1799 251.07V257.2V263.34L56.1699 269.26ZM70.7299 259.7C70.7065 259.75 70.6681 259.792 70.6199 259.82C70.6681 259.792 70.7065 259.75 70.7299 259.7V259.7ZM64.0299 248.43C65.6397 249.568 66.9754 251.051 67.9399 252.77C68.9452 254.459 69.557 256.352 69.7299 258.31L64.0099 255.01L64.0299 248.43ZM64.0299 256.18L69.77 259.49V264.49L64.0299 261.18V256.18ZM64.0299 262.32L69.77 265.63V270.63L64.0299 267.31V262.32ZM64.0299 268.46L69.7199 271.81V276.52L63.9799 273.21L64.0299 268.46ZM57.3199 251.1C57.3129 250.419 57.4756 249.747 57.7934 249.145C58.1111 248.542 58.5739 248.029 59.14 247.65C59.7605 247.357 60.4434 247.222 61.1286 247.255C61.8138 247.288 62.4805 247.489 63.0699 247.84V254.41L57.3399 251.1H57.3199ZM57.3199 257.23V252.23L63.0699 255.55V260.55L57.3199 257.23ZM57.3199 258.4L63.0699 261.72V266.72L57.3199 263.4V258.4ZM57.3199 264.54L63.0699 267.86V272.57L57.3199 269.25V264.54Z" fill="white"/>
<path d="M35.8496 257.44C35.8588 257.616 35.9102 257.788 35.9996 257.94C36.0863 258.094 36.21 258.225 36.3596 258.32L43.1296 262.23L49.8997 266.14C49.9547 266.171 50.0167 266.187 50.0797 266.187C50.1427 266.187 50.2046 266.171 50.2596 266.14C50.3102 266.102 50.3503 266.052 50.3765 265.994C50.4027 265.936 50.4141 265.873 50.4096 265.81V259.92V253.78V253.59V247.65C50.2772 245.132 49.5515 242.68 48.2916 240.496C47.0316 238.311 45.2732 236.456 43.1596 235.08C39.1596 232.76 35.8696 234.63 35.8596 239.25V245.38V251.52L35.8496 257.44ZM36.3696 251.25C36.303 251.21 36.303 251.21 36.3696 251.25V251.25Z" fill="#76C1B4"/>
<path d="M36.3301 245.81L36.54 245.93L36.3301 245.81Z" fill="#76C1B4"/>
<g style="mix-blend-mode:multiply">
<g style="mix-blend-mode:multiply">
<path d="M49.4103 253.86V253.81L43.6703 250.49L43.6504 255.45L44.0303 255.67L44.0403 250.76L49.4103 253.86Z" fill="#76C1B4"/>
</g>
<g style="mix-blend-mode:multiply">
<path d="M49.3906 260.01V259.95L43.6506 256.64L43.6406 261.34L44.0106 261.56L44.0206 256.91L49.3906 260.01Z" fill="#76C1B4"/>
</g>
<g style="mix-blend-mode:multiply">
<path d="M42.6499 249.96V249.91L36.8999 246.58L36.8799 251.55L37.2499 251.76L37.2699 246.85L42.6499 249.96Z" fill="#76C1B4"/>
</g>
<g style="mix-blend-mode:multiply">
<path d="M43.71 236.6V243.17L44.08 243.38V236.88C43.95 236.81 43.84 236.69 43.71 236.6Z" fill="#76C1B4"/>
</g>
<g style="mix-blend-mode:multiply">
<path d="M49.4299 247.72V247.66L43.6899 244.35L43.6699 249.32L44.0399 249.54L44.0599 244.62L49.4299 247.72Z" fill="#76C1B4"/>
</g>
<g style="mix-blend-mode:multiply">
<path d="M42.6703 243.81V243.76L36.9203 240.44L36.9004 245.41L37.2704 245.63L37.2903 240.71L42.6703 243.81Z" fill="#76C1B4"/>
</g>
<g style="mix-blend-mode:multiply">
<path d="M42.6301 256.1V256.05L36.8801 252.73L36.8701 257.44L37.2401 257.65L37.2501 253L42.6301 256.1Z" fill="#76C1B4"/>
</g>
<g style="mix-blend-mode:multiply">
<path d="M39.1297 236.09C39.6828 235.815 40.292 235.672 40.9096 235.672C41.5273 235.672 42.1366 235.815 42.6897 236.09V235.96C42.1002 235.609 41.4336 235.408 40.7483 235.375C40.0631 235.342 39.3802 235.478 38.7597 235.77C38.1937 236.149 37.7309 236.662 37.4131 237.265C37.0954 237.867 36.9326 238.539 36.9397 239.22L37.3197 239.44C37.3262 238.777 37.4945 238.125 37.8099 237.541C38.1253 236.957 38.5783 236.459 39.1297 236.09V236.09Z" fill="#76C1B4"/>
</g>
</g>
<path d="M35.8496 257.44C35.8588 257.616 35.9102 257.788 35.9996 257.94C36.0863 258.094 36.21 258.225 36.3596 258.32L43.1296 262.23L49.8997 266.14C49.9547 266.171 50.0167 266.187 50.0797 266.187C50.1427 266.187 50.2046 266.171 50.2596 266.14C50.3102 266.102 50.3503 266.052 50.3765 265.994C50.4027 265.936 50.4141 265.873 50.4096 265.81V259.92V253.78V247.65C50.2772 245.132 49.5515 242.68 48.2916 240.496C47.0316 238.311 45.2732 236.456 43.1596 235.08C39.1596 232.76 35.8696 234.63 35.8596 239.25V245.38V251.52L35.8496 257.44ZM50.4096 247.88C50.3862 247.93 50.3478 247.972 50.2996 248C50.3494 247.97 50.3879 247.924 50.4096 247.87V247.88ZM43.7097 236.61C45.3194 237.748 46.6551 239.231 47.6196 240.95C48.6249 242.639 49.2367 244.532 49.4096 246.49L43.6896 243.19L43.7097 236.61ZM43.7097 244.36L49.4496 247.67V252.67L43.7097 249.36V244.36ZM43.7097 250.5L49.4496 253.81V258.81L43.6196 255.45L43.7097 250.5ZM43.7097 256.64L49.4496 259.95V264.66L43.6196 261.35L43.7097 256.64ZM36.9996 239.28C36.9926 238.599 37.1553 237.927 37.4731 237.325C37.7908 236.722 38.2536 236.209 38.8196 235.83C39.4402 235.537 40.1231 235.402 40.8083 235.435C41.4935 235.468 42.1602 235.669 42.7496 236.02V242.59L37.0197 239.28H36.9996ZM36.9996 245.41V240.41L42.6196 243.81V248.81L36.8696 245.49L36.9996 245.41ZM36.9996 246.58L42.7496 249.9V254.9L36.9996 251.58V246.58ZM36.9996 252.72L42.7496 256.04V260.75L36.9996 257.43V252.72Z" fill="white"/>
<path d="M15.5195 245.81C15.5287 245.986 15.5801 246.158 15.6695 246.31C15.7562 246.465 15.8799 246.595 16.0295 246.69L22.7995 250.6L29.5695 254.51C29.6248 254.54 29.6867 254.555 29.7495 254.555C29.8123 254.555 29.8742 254.54 29.9295 254.51C29.98 254.472 30.0202 254.422 30.0464 254.364C30.0726 254.306 30.084 254.243 30.0795 254.18V248.29V242.15V241.96V236.02C29.9472 233.502 29.2214 231.05 27.9614 228.866C26.7015 226.681 24.9431 224.826 22.8295 223.45C18.8295 221.13 15.5395 223 15.5295 227.62V233.75V239.89L15.5195 245.81ZM16.0395 239.62C15.9728 239.587 15.9762 239.59 16.0495 239.63L16.0395 239.62Z" fill="#76C1B4"/>
<g style="mix-blend-mode:multiply">
<g style="mix-blend-mode:multiply">
<path d="M29.09 242.24V242.19L23.35 238.87L23.3301 243.83L23.7001 244.05L23.72 239.14L29.09 242.24Z" fill="#76C1B4"/>
</g>
<g style="mix-blend-mode:multiply">
<path d="M29.0703 248.39V248.33L23.3303 245.02L23.3203 249.73L23.6903 249.94L23.7003 245.29L29.0703 248.39Z" fill="#76C1B4"/>
</g>
<g style="mix-blend-mode:multiply">
<path d="M22.3306 238.34V238.29L16.5806 234.96L16.5605 239.93L16.9305 240.14L16.9506 235.23L22.3306 238.34Z" fill="#76C1B4"/>
</g>
<g style="mix-blend-mode:multiply">
<path d="M23.3896 224.98V231.55L23.7596 231.76V225.26C23.6196 225.18 23.5096 225.07 23.3896 224.98Z" fill="#76C1B4"/>
</g>
<g style="mix-blend-mode:multiply">
<path d="M29.1096 236.1V236.05L23.3596 232.73L23.3496 237.7L23.7196 237.92L23.7296 233L29.1096 236.1Z" fill="#76C1B4"/>
</g>
<g style="mix-blend-mode:multiply">
<path d="M22.34 232.19V232.14L16.59 228.82L16.5801 233.79L16.9501 234.01L16.9601 229.09L22.34 232.19Z" fill="#76C1B4"/>
</g>
<g style="mix-blend-mode:multiply">
<path d="M22.3101 244.48V244.43L16.5601 241.11L16.54 245.82L16.92 246.03L16.9301 241.38L22.3101 244.48Z" fill="#76C1B4"/>
</g>
<g style="mix-blend-mode:multiply">
<path d="M18.8103 224.48C19.3635 224.205 19.9727 224.062 20.5903 224.062C21.2079 224.062 21.8172 224.205 22.3703 224.48V224.35C21.7809 223.999 21.1143 223.798 20.4291 223.765C19.7438 223.732 19.0609 223.867 18.4403 224.16C17.8743 224.539 17.4115 225.052 17.0938 225.655C16.776 226.257 16.6133 226.929 16.6203 227.61L17.0003 227.83C17.0069 227.166 17.1752 226.515 17.4906 225.931C17.806 225.347 18.259 224.849 18.8103 224.48Z" fill="#76C1B4"/>
</g>
</g>
<path d="M15.5195 245.81C15.5287 245.986 15.5801 246.158 15.6695 246.31C15.7562 246.465 15.8799 246.595 16.0295 246.69L22.7995 250.6L29.5695 254.51C29.6248 254.54 29.6867 254.555 29.7495 254.555C29.8123 254.555 29.8742 254.54 29.9295 254.51C29.98 254.472 30.0202 254.422 30.0464 254.364C30.0726 254.306 30.084 254.243 30.0795 254.18V248.29V242.15V236.02C29.9472 233.502 29.2214 231.05 27.9614 228.866C26.7015 226.681 24.9431 224.826 22.8295 223.45C18.8295 221.13 15.5395 223 15.5295 227.62V233.75V239.89L15.5195 245.81ZM30.0795 236.25C30.0561 236.3 30.0176 236.342 29.9695 236.37C30.0213 236.344 30.0634 236.302 30.0895 236.25H30.0795ZM23.3795 224.98C24.9893 226.118 26.325 227.601 27.2895 229.32C28.2948 231.009 28.9066 232.902 29.0795 234.86L23.3595 231.56L23.3795 224.98ZM23.3795 232.73L29.1195 236.04V241.04L23.3795 237.73V232.73ZM23.3795 238.87L29.1195 242.19V247.19L23.3295 243.81L23.3795 238.87ZM23.3795 245.01L29.1195 248.32V253.03L23.3795 249.72V245.01ZM16.6195 227.66C16.6125 226.979 16.7752 226.307 17.093 225.705C17.4107 225.102 17.8735 224.589 18.4395 224.21C19.0601 223.918 19.743 223.782 20.4282 223.815C21.1135 223.848 21.7801 224.049 22.3695 224.4V230.97L16.6195 227.66ZM16.6195 233.79V228.79L22.3695 232.11V237.11L16.6195 233.81V233.79ZM16.6195 234.96L22.3695 238.28V243.28L16.6195 239.96V234.96ZM16.6195 241.1L22.3695 244.42V249.13L16.5395 245.81L16.6195 241.1Z" fill="white"/>
<path d="M136.82 255.33L111.06 270.2V300.04L136.82 314.81L162.57 299.94V290.09L153.99 285.02V275.26L145.4 270.08V260.29L136.82 255.33Z" fill="#966E25"/>
<path d="M145.399 260.29L119.649 275.16V284.95L145.399 270.08V260.29Z" fill="#966E25"/>
<path d="M119.649 284.95V285.07L128.229 290.03V290.13L153.989 275.26V275.16L145.399 270.2V270.08L119.649 284.95Z" fill="#A6792B"/>
<path d="M145.4 260.29L136.82 255.33L111.06 270.2L119.65 275.16L145.4 260.29Z" fill="#A6792B"/>
<path d="M128.229 299.89V299.94L136.82 304.9V304.96L162.57 290.09V290.03L153.99 285.07V285.02L128.229 299.89Z" fill="#A6792B"/>
<path d="M136.819 304.96V314.81L162.569 299.94V290.09L136.819 304.96Z" fill="#966E25"/>
<path d="M128.229 290.13V299.89L153.99 285.02V275.26L128.229 290.13Z" fill="#966E25"/>
<path d="M132.809 233.39C132.809 228.21 129.129 226.12 124.629 228.72C120.129 231.32 116.469 237.64 116.489 242.82L116.559 266.82L132.879 257.39L132.809 233.39Z" fill="#8B6621"/>
<g style="mix-blend-mode:multiply" opacity="0.5">
<path d="M131.82 234.07L131.89 257.92L132.89 257.35L132.82 233.35C132.82 228.17 129.14 226.08 124.64 228.68C124.217 228.929 123.81 229.203 123.42 229.5L123.66 229.35C128.14 226.81 131.8 228.88 131.82 234.07Z" fill="#8B6621"/>
</g>
<g style="mix-blend-mode:multiply">
<g style="mix-blend-mode:multiply">
<path d="M130.62 245.64C130.907 245.465 131.147 245.224 131.321 244.937C131.495 244.65 131.597 244.325 131.62 243.99C131.62 243.39 131.19 243.14 130.62 243.45C130.334 243.626 130.094 243.867 129.92 244.154C129.747 244.441 129.644 244.765 129.62 245.1C129.62 245.71 130.05 245.94 130.62 245.64Z" fill="#7D5B1B"/>
</g>
</g>
<path d="M163.409 112.91L85.3293 158.29L85.3193 160.46L163.409 115.08V112.91Z" fill="#8B6621"/>
<path d="M162.149 112.18L84.0693 157.56L85.3293 158.29L163.409 112.91L162.149 112.18Z" fill="#966E25"/>
<path d="M84.0696 157.56L84.0596 159.74L85.3196 160.46L85.3296 158.29L84.0696 157.56Z" fill="#6F5115"/>
<path d="M84.0595 159.01L5.97949 113.63V115.82L84.0695 161.2L84.0595 159.01Z" fill="#6F5114"/>
<path d="M85.3195 158.29L7.22949 112.91L5.97949 113.63L84.0595 159.01L85.3195 158.29Z" fill="#966E25"/>
<path d="M85.3196 158.29L84.0596 159.01L84.0696 161.2L85.3296 160.47L85.3196 158.29Z" fill="#8B6621"/>
<path d="M164.05 157.27L85.96 202.65V204.82L164.04 159.44L164.05 157.27Z" fill="#8B6621"/>
<path d="M162.79 156.54L84.7002 201.92L85.9602 202.65L164.05 157.27L162.79 156.54Z" fill="#966E25"/>
<path d="M84.7002 201.92V204.09L85.9602 204.82V202.65L84.7002 201.92Z" fill="#6F5115"/>
<path d="M84.6994 203.37L6.60938 157.99L6.61938 160.18L84.7094 205.56L84.6994 203.37Z" fill="#6F5114"/>
<path d="M85.9594 202.64L7.86938 157.26L6.60938 157.99L84.6994 203.37L85.9594 202.64Z" fill="#966E25"/>
<path d="M85.9592 202.64L84.6992 203.37L84.7092 205.56L85.9692 204.83L85.9592 202.64Z" fill="#8B6621"/>
<path d="M163.95 201.62L85.8596 247L85.8496 249.18L163.94 203.8L163.95 201.62Z" fill="#8B6621"/>
<path d="M162.69 200.9L84.5996 246.28L85.8596 247L163.95 201.62L162.69 200.9Z" fill="#966E25"/>
<path d="M84.5999 246.28L84.5898 248.45L85.8499 249.18L85.8599 247L84.5999 246.28Z" fill="#6F5115"/>
<path d="M84.5997 247.73L6.50977 202.35V204.53L84.5997 249.91V247.73Z" fill="#6F5114"/>
<path d="M85.8597 247L7.76978 201.62L6.50977 202.35L84.5997 247.73L85.8597 247Z" fill="#966E25"/>
<path d="M85.8596 247L84.5996 247.73V249.91L85.8596 249.19V247Z" fill="#8B6621"/>
</svg>
